<svg width="24" height="25" viewBox="0 0 24 25" fill="none" xmlns="http://www.w3.org/2000/svg">
<g clip-path="url(#clip0_339_55)">
<path d="M20 6.5V18.5C20 19.0304 19.7893 19.5391 19.4142 19.9142C19.0391 20.2893 18.5304 20.5 18 20.5H8C7.46957 20.5 6.96086 20.2893 6.58579 19.9142C6.21071 19.5391 6 19.0304 6 18.5V6.5C6 5.96957 6.21071 5.46086 6.58579 5.08579C6.96086 4.71071 7.46957 4.5 8 4.5H18C18.5304 4.5 19.0391 4.71071 19.4142 5.08579C19.7893 5.46086 20 5.96957 20 6.5Z" stroke="white" stroke-width="1.5" stroke-linecap="round" stroke-linejoin="round"/>
<path d="M10 16.5H16" stroke="white" stroke-width="1.5" stroke-linecap="round" stroke-linejoin="round"/>
<path d="M10.9995 11.5C10.9995 12.0304 11.2102 12.5391 11.5853 12.9142C11.9604 13.2893 12.4691 13.5 12.9995 13.5C13.5299 13.5 14.0387 13.2893 14.4137 12.9142C14.7888 12.5391 14.9995 12.0304 14.9995 11.5C14.9995 10.9696 14.7888 10.4609 14.4137 10.0858C14.0387 9.71071 13.5299 9.5 12.9995 9.5C12.4691 9.5 11.9604 9.71071 11.5853 10.0858C11.2102 10.4609 10.9995 10.9696 10.9995 11.5Z" stroke="white" stroke-width="1.5" stroke-linecap="round" stroke-linejoin="round"/>
<path d="M4 8.5H7" stroke="white" stroke-width="1.5" stroke-linecap="round" stroke-linejoin="round"/>
<path d="M4 12.5H7" stroke="white" stroke-width="1.5" stroke-linecap="round" stroke-linejoin="round"/>
<path d="M4 16.5H7" stroke="white" stroke-width="1.5" stroke-linecap="round" stroke-linejoin="round"/>
</g>
<defs>
<clipPath id="clip0_339_55">
<rect width="24" height="24" fill="white" transform="translate(0 0.5)"/>
</clipPath>
</defs>
</svg>
