<svg width="44" height="44" viewBox="0 0 44 44" fill="none" xmlns="http://www.w3.org/2000/svg">
<g clip-path="url(#clip0_1035_9)">
<path d="M7.3335 10.9999C7.3335 10.0275 7.7198 9.09483 8.40744 8.40719C9.09507 7.71956 10.0277 7.33325 11.0002 7.33325H33.0002C33.9726 7.33325 34.9053 7.71956 35.5929 8.40719C36.2805 9.09483 36.6668 10.0275 36.6668 10.9999V32.9999C36.6668 33.9724 36.2805 34.905 35.5929 35.5926C34.9053 36.2803 33.9726 36.6666 33.0002 36.6666H11.0002C10.0277 36.6666 9.09507 36.2803 8.40744 35.5926C7.7198 34.905 7.3335 33.9724 7.3335 32.9999V10.9999Z" stroke="white" stroke-width="2.75" stroke-linecap="round" stroke-linejoin="round"/>
<path d="M14.6665 20.1667V29.3334" stroke="white" stroke-width="2.75" stroke-linecap="round" stroke-linejoin="round"/>
<path d="M14.6665 14.6667V14.6851" stroke="white" stroke-width="2.75" stroke-linecap="round" stroke-linejoin="round"/>
<path d="M22 29.3334V20.1667" stroke="white" stroke-width="2.75" stroke-linecap="round" stroke-linejoin="round"/>
<path d="M29.3333 29.3334V23.8334C29.3333 22.861 28.947 21.9283 28.2594 21.2407C27.5718 20.5531 26.6391 20.1667 25.6667 20.1667C24.6942 20.1667 23.7616 20.5531 23.0739 21.2407C22.3863 21.9283 22 22.861 22 23.8334" stroke="white" stroke-width="2.75" stroke-linecap="round" stroke-linejoin="round"/>
</g>
<defs>
<clipPath id="clip0_1035_9">
<rect width="44" height="44" fill="white"/>
</clipPath>
</defs>
</svg>
