<svg width="44" height="44" viewBox="0 0 44 44" fill="none" xmlns="http://www.w3.org/2000/svg">
<g clip-path="url(#clip0_61_27)">
<path d="M7.3335 10.9999C7.3335 10.0275 7.7198 9.09483 8.40744 8.40719C9.09507 7.71956 10.0277 7.33325 11.0002 7.33325H33.0002C33.9726 7.33325 34.9053 7.71956 35.5929 8.40719C36.2805 9.09483 36.6668 10.0275 36.6668 10.9999V32.9999C36.6668 33.9724 36.2805 34.905 35.5929 35.5926C34.9053 36.2803 33.9726 36.6666 33.0002 36.6666H11.0002C10.0277 36.6666 9.09507 36.2803 8.40744 35.5926C7.7198 34.905 7.3335 33.9724 7.3335 32.9999V10.9999Z" stroke="white" stroke-width="2.75" stroke-linecap="round" stroke-linejoin="round"/>
<path d="M14.6665 16.5H16.4998L21.9998 22L27.4998 16.5H29.3332" stroke="white" stroke-width="2.75" stroke-linecap="round" stroke-linejoin="round"/>
<path d="M14.6665 27.5H18.3332" stroke="white" stroke-width="2.75" stroke-linecap="round" stroke-linejoin="round"/>
<path d="M25.6665 27.5H29.3332" stroke="white" stroke-width="2.75" stroke-linecap="round" stroke-linejoin="round"/>
<path d="M16.5 16.5V27.5" stroke="white" stroke-width="2.75" stroke-linecap="round" stroke-linejoin="round"/>
<path d="M27.5 16.5V27.5" stroke="white" stroke-width="2.75" stroke-linecap="round" stroke-linejoin="round"/>
</g>
<defs>
<clipPath id="clip0_61_27">
<rect width="44" height="44" fill="white"/>
</clipPath>
</defs>
</svg>
