<svg width="600" height="320" viewBox="0 0 600 320" fill="none" xmlns="http://www.w3.org/2000/svg">
<g filter="url(#filter0_ddd_12_2511)">
<rect width="240" height="240" transform="translate(40 40)" fill="#EABFFF" style="fill:#EABFFF;fill:color(display-p3 0.9176 0.7490 1.0000);fill-opacity:1;"/>
<path d="M61.2784 66.3636V78H62.9489V69.5739H63.0568L66.4886 77.983H67.875L71.3068 69.5795H71.4148V78H73.0852V66.3636H70.9545L67.25 75.4091H67.1136L63.4091 66.3636H61.2784ZM79.0868 78.1761C80.9902 78.1761 82.3368 77.2386 82.7231 75.8182L81.1152 75.5284C80.8084 76.3523 80.0697 76.7727 79.1038 76.7727C77.6493 76.7727 76.672 75.8295 76.6266 74.1477H82.8311V73.5455C82.8311 70.392 80.9447 69.1591 78.9675 69.1591C76.5356 69.1591 74.9334 71.0114 74.9334 73.6932C74.9334 76.4034 76.5129 78.1761 79.0868 78.1761ZM76.6322 72.875C76.7004 71.6364 77.5981 70.5625 78.9788 70.5625C80.297 70.5625 81.1606 71.5398 81.1663 72.875H76.6322ZM86.2389 72.8182C86.2389 71.4261 87.0912 70.6307 88.273 70.6307C89.4264 70.6307 90.1253 71.3864 90.1253 72.6534V78H91.8241V72.4489C91.8241 70.2898 90.6366 69.1591 88.8525 69.1591C87.54 69.1591 86.6821 69.767 86.2787 70.6932H86.1707V69.2727H84.54V78H86.2389V72.8182ZM93.9265 78H95.6254V69.2727H93.9265V78ZM94.7845 67.9261C95.3697 67.9261 95.8584 67.4716 95.8584 66.9148C95.8584 66.358 95.3697 65.8977 94.7845 65.8977C94.1936 65.8977 93.7106 66.358 93.7106 66.9148C93.7106 67.4716 94.1936 67.9261 94.7845 67.9261ZM99.4338 72.8182C99.4338 71.4261 100.286 70.6307 101.468 70.6307C102.621 70.6307 103.32 71.3864 103.32 72.6534V78H105.019V72.4489C105.019 70.2898 103.832 69.1591 102.047 69.1591C100.735 69.1591 99.877 69.767 99.4736 70.6932H99.3656V69.2727H97.7349V78H99.4338V72.8182ZM110.781 81.4545C113.002 81.4545 114.718 80.4375 114.718 78.1932V69.2727H113.053V70.6875H112.928C112.627 70.1477 112.025 69.1591 110.4 69.1591C108.292 69.1591 106.741 70.8239 106.741 73.6023C106.741 76.3864 108.326 77.8693 110.388 77.8693C111.991 77.8693 112.61 76.9659 112.917 76.4091H113.025V78.125C113.025 79.4943 112.087 80.0852 110.798 80.0852C109.383 80.0852 108.832 79.375 108.531 78.875L107.07 79.4773C107.531 80.5455 108.695 81.4545 110.781 81.4545ZM110.763 76.4602C109.246 76.4602 108.457 75.2955 108.457 73.5795C108.457 71.9034 109.229 70.6023 110.763 70.6023C112.246 70.6023 113.042 71.8125 113.042 73.5795C113.042 75.3807 112.229 76.4602 110.763 76.4602ZM116.82 78H118.519V74.9034L119.366 74.0568L122.332 78H124.417L120.644 73.017L124.178 69.2727H122.144L118.667 72.9659H118.519V66.3636H116.82V78ZM128.09 78.1932C129.534 78.1932 130.346 77.4602 130.67 76.8068H130.738V78H132.397V72.2045C132.397 69.6648 130.397 69.1591 129.011 69.1591C127.431 69.1591 125.977 69.7955 125.409 71.3864L127.005 71.75C127.255 71.1307 127.892 70.5341 129.034 70.5341C130.13 70.5341 130.693 71.108 130.693 72.0966V72.1364C130.693 72.7557 130.056 72.7443 128.488 72.9261C126.835 73.1193 125.142 73.5511 125.142 75.5341C125.142 77.25 126.431 78.1932 128.09 78.1932ZM128.46 76.8295C127.5 76.8295 126.806 76.3977 126.806 75.5568C126.806 74.6477 127.613 74.3239 128.596 74.1932C129.147 74.1193 130.454 73.9716 130.698 73.7273V74.8523C130.698 75.8864 129.875 76.8295 128.46 76.8295ZM138.558 69.2727H136.768V67.1818H135.069V69.2727H133.791V70.6364H135.069V75.7898C135.064 77.375 136.274 78.142 137.615 78.1136C138.155 78.108 138.518 78.0057 138.717 77.9318L138.41 76.5284C138.297 76.5511 138.086 76.6023 137.814 76.6023C137.262 76.6023 136.768 76.4205 136.768 75.4375V70.6364H138.558V69.2727ZM140.449 78H142.148V74.9034L142.994 74.0568L145.96 78H148.045L144.273 73.017L147.807 69.2727H145.773L142.295 72.9659H142.148V66.3636H140.449V78ZM151.719 78.1932C153.162 78.1932 153.974 77.4602 154.298 76.8068H154.366V78H156.026V72.2045C156.026 69.6648 154.026 69.1591 152.639 69.1591C151.06 69.1591 149.605 69.7955 149.037 71.3864L150.633 71.75C150.883 71.1307 151.52 70.5341 152.662 70.5341C153.758 70.5341 154.321 71.108 154.321 72.0966V72.1364C154.321 72.7557 153.685 72.7443 152.116 72.9261C150.463 73.1193 148.77 73.5511 148.77 75.5341C148.77 77.25 150.06 78.1932 151.719 78.1932ZM152.088 76.8295C151.128 76.8295 150.435 76.3977 150.435 75.5568C150.435 74.6477 151.241 74.3239 152.224 74.1932C152.776 74.1193 154.082 73.9716 154.327 73.7273V74.8523C154.327 75.8864 153.503 76.8295 152.088 76.8295ZM159.811 72.8182C159.811 71.4261 160.663 70.6307 161.845 70.6307C162.999 70.6307 163.698 71.3864 163.698 72.6534V78H165.396V72.4489C165.396 70.2898 164.209 69.1591 162.425 69.1591C161.112 69.1591 160.254 69.767 159.851 70.6932H159.743V69.2727H158.112V78H159.811V72.8182ZM175.319 78.1761C177.222 78.1761 178.569 77.2386 178.955 75.8182L177.347 75.5284C177.04 76.3523 176.301 76.7727 175.336 76.7727C173.881 76.7727 172.904 75.8295 172.858 74.1477H179.063V73.5455C179.063 70.392 177.176 69.1591 175.199 69.1591C172.767 69.1591 171.165 71.0114 171.165 73.6932C171.165 76.4034 172.745 78.1761 175.319 78.1761ZM172.864 72.875C172.932 71.6364 173.83 70.5625 175.211 70.5625C176.529 70.5625 177.392 71.5398 177.398 72.875H172.864ZM180.772 78H182.471V72.6193C182.471 71.4432 183.295 70.625 184.26 70.625C185.204 70.625 185.857 71.25 185.857 72.1989V78H187.55V72.4375C187.55 71.3864 188.192 70.625 189.3 70.625C190.198 70.625 190.937 71.125 190.937 72.3068V78H192.635V72.1477C192.635 70.1534 191.522 69.1591 189.942 69.1591C188.687 69.1591 187.743 69.7614 187.323 70.6932H187.232C186.851 69.7386 186.05 69.1591 184.885 69.1591C183.732 69.1591 182.874 69.733 182.51 70.6932H182.402V69.2727H180.772V78ZM198.413 78.1761C200.873 78.1761 202.481 76.375 202.481 73.6761C202.481 70.9602 200.873 69.1591 198.413 69.1591C195.952 69.1591 194.344 70.9602 194.344 73.6761C194.344 76.375 195.952 78.1761 198.413 78.1761ZM198.418 76.75C196.81 76.75 196.06 75.3466 196.06 73.6705C196.06 72 196.81 70.5795 198.418 70.5795C200.015 70.5795 200.765 72 200.765 73.6705C200.765 75.3466 200.015 76.75 198.418 76.75ZM210.741 71.4034C210.389 70.0455 209.326 69.1591 207.44 69.1591C205.468 69.1591 204.07 70.1989 204.07 71.7443C204.07 72.983 204.82 73.8068 206.457 74.1705L207.934 74.4943C208.775 74.6818 209.167 75.0568 209.167 75.6023C209.167 76.2784 208.445 76.8068 207.332 76.8068C206.315 76.8068 205.661 76.3693 205.457 75.5114L203.815 75.7614C204.099 77.3068 205.383 78.1761 207.343 78.1761C209.451 78.1761 210.911 77.0568 210.911 75.4773C210.911 74.2443 210.127 73.483 208.525 73.1136L207.139 72.7955C206.178 72.5682 205.764 72.2443 205.769 71.6534C205.764 70.983 206.491 70.5057 207.457 70.5057C208.514 70.5057 209.002 71.0909 209.201 71.6761L210.741 71.4034ZM212.603 78H214.302V69.2727H212.603V78ZM213.461 67.9261C214.046 67.9261 214.535 67.4716 214.535 66.9148C214.535 66.358 214.046 65.8977 213.461 65.8977C212.87 65.8977 212.387 66.358 212.387 66.9148C212.387 67.4716 212.87 67.9261 213.461 67.9261ZM220.088 78.1761C222.548 78.1761 224.156 76.375 224.156 73.6761C224.156 70.9602 222.548 69.1591 220.088 69.1591C217.627 69.1591 216.02 70.9602 216.02 73.6761C216.02 76.375 217.627 78.1761 220.088 78.1761ZM220.093 76.75C218.485 76.75 217.735 75.3466 217.735 73.6705C217.735 72 218.485 70.5795 220.093 70.5795C221.69 70.5795 222.44 72 222.44 73.6705C222.44 75.3466 221.69 76.75 220.093 76.75ZM227.575 72.8182C227.575 71.4261 228.427 70.6307 229.609 70.6307C230.763 70.6307 231.461 71.3864 231.461 72.6534V78H233.16V72.4489C233.16 70.2898 231.973 69.1591 230.189 69.1591C228.876 69.1591 228.018 69.767 227.615 70.6932H227.507V69.2727H225.876V78H227.575V72.8182ZM237.802 78.1932C239.246 78.1932 240.058 77.4602 240.382 76.8068H240.45V78H242.109V72.2045C242.109 69.6648 240.109 69.1591 238.723 69.1591C237.143 69.1591 235.689 69.7955 235.121 71.3864L236.717 71.75C236.967 71.1307 237.604 70.5341 238.746 70.5341C239.842 70.5341 240.405 71.108 240.405 72.0966V72.1364C240.405 72.7557 239.768 72.7443 238.2 72.9261C236.547 73.1193 234.854 73.5511 234.854 75.5341C234.854 77.25 236.143 78.1932 237.802 78.1932ZM238.172 76.8295C237.212 76.8295 236.518 76.3977 236.518 75.5568C236.518 74.6477 237.325 74.3239 238.308 74.1932C238.859 74.1193 240.166 73.9716 240.41 73.7273V74.8523C240.41 75.8864 239.587 76.8295 238.172 76.8295ZM245.895 66.3636H244.196V78H245.895V66.3636ZM64.4091 102.17C66 102.17 66.625 101.199 66.9318 100.642H67.0739V102H68.733V90.3636H67.0341V94.6875H66.9318C66.625 94.1477 66.0455 93.1591 64.4205 93.1591C62.3125 93.1591 60.7614 94.8239 60.7614 97.6534C60.7614 100.477 62.2898 102.17 64.4091 102.17ZM64.7841 100.722C63.267 100.722 62.4773 99.3864 62.4773 97.6364C62.4773 95.9034 63.25 94.6023 64.7841 94.6023C66.267 94.6023 67.0625 95.8125 67.0625 97.6364C67.0625 99.4716 66.25 100.722 64.7841 100.722ZM74.6578 102.176C77.118 102.176 78.726 100.375 78.726 97.6761C78.726 94.9602 77.118 93.1591 74.6578 93.1591C72.1976 93.1591 70.5896 94.9602 70.5896 97.6761C70.5896 100.375 72.1976 102.176 74.6578 102.176ZM74.6635 100.75C73.0555 100.75 72.3055 99.3466 72.3055 97.6705C72.3055 96 73.0555 94.5795 74.6635 94.5795C76.2601 94.5795 77.0101 96 77.0101 97.6705C77.0101 99.3466 76.2601 100.75 74.6635 100.75ZM82.1452 96.8182C82.1452 95.4261 82.9974 94.6307 84.1793 94.6307C85.3327 94.6307 86.0315 95.3864 86.0315 96.6534V102H87.7304V96.4489C87.7304 94.2898 86.5429 93.1591 84.7588 93.1591C83.4463 93.1591 82.5883 93.767 82.1849 94.6932H82.077V93.2727H80.4463V102H82.1452V96.8182ZM92.3726 102.193C93.8158 102.193 94.6283 101.46 94.9521 100.807H95.0203V102H96.6794V96.2045C96.6794 93.6648 94.6794 93.1591 93.293 93.1591C91.7135 93.1591 90.2589 93.7955 89.6908 95.3864L91.2873 95.75C91.5373 95.1307 92.1737 94.5341 93.3158 94.5341C94.4123 94.5341 94.9748 95.108 94.9748 96.0966V96.1364C94.9748 96.7557 94.3385 96.7443 92.7703 96.9261C91.1169 97.1193 89.4237 97.5511 89.4237 99.5341C89.4237 101.25 90.7135 102.193 92.3726 102.193ZM92.7419 100.83C91.7817 100.83 91.0885 100.398 91.0885 99.5568C91.0885 98.6477 91.8953 98.3239 92.8783 98.1932C93.4294 98.1193 94.7362 97.9716 94.9805 97.7273V98.8523C94.9805 99.8864 94.1567 100.83 92.7419 100.83ZM102.84 93.2727H101.05V91.1818H99.3514V93.2727H98.073V94.6364H99.3514V99.7898C99.3457 101.375 100.556 102.142 101.897 102.114C102.437 102.108 102.8 102.006 102.999 101.932L102.692 100.528C102.579 100.551 102.368 100.602 102.096 100.602C101.545 100.602 101.05 100.42 101.05 99.4375V94.6364H102.84V93.2727ZM110.072 98.3807C110.077 99.8636 108.975 100.568 108.021 100.568C106.969 100.568 106.242 99.8068 106.242 98.6193V93.2727H104.543V98.8239C104.543 100.989 105.731 102.114 107.407 102.114C108.719 102.114 109.611 101.42 110.015 100.489H110.106V102H111.776V93.2727H110.072V98.3807ZM113.883 102H115.582V96.6705C115.582 95.5284 116.462 94.7045 117.667 94.7045C118.019 94.7045 118.417 94.767 118.553 94.8068V93.1818C118.383 93.1591 118.048 93.142 117.832 93.142C116.809 93.142 115.934 93.7216 115.616 94.6591H115.525V93.2727H113.883V102ZM130.446 95.4034C130.093 94.0455 129.031 93.1591 127.145 93.1591C125.173 93.1591 123.775 94.1989 123.775 95.7443C123.775 96.983 124.525 97.8068 126.162 98.1705L127.639 98.4943C128.48 98.6818 128.872 99.0568 128.872 99.6023C128.872 100.278 128.15 100.807 127.037 100.807C126.02 100.807 125.366 100.369 125.162 99.5114L123.52 99.7614C123.804 101.307 125.088 102.176 127.048 102.176C129.156 102.176 130.616 101.057 130.616 99.4773C130.616 98.2443 129.832 97.483 128.23 97.1136L126.843 96.7955C125.883 96.5682 125.468 96.2443 125.474 95.6534C125.468 94.983 126.196 94.5057 127.162 94.5057C128.218 94.5057 128.707 95.0909 128.906 95.6761L130.446 95.4034ZM134.848 102.193C136.291 102.193 137.104 101.46 137.427 100.807H137.496V102H139.155V96.2045C139.155 93.6648 137.155 93.1591 135.768 93.1591C134.189 93.1591 132.734 93.7955 132.166 95.3864L133.763 95.75C134.013 95.1307 134.649 94.5341 135.791 94.5341C136.888 94.5341 137.45 95.108 137.45 96.0966V96.1364C137.45 96.7557 136.814 96.7443 135.246 96.9261C133.592 97.1193 131.899 97.5511 131.899 99.5341C131.899 101.25 133.189 102.193 134.848 102.193ZM135.217 100.83C134.257 100.83 133.564 100.398 133.564 99.5568C133.564 98.6477 134.371 98.3239 135.354 98.1932C135.905 98.1193 137.211 97.9716 137.456 97.7273V98.8523C137.456 99.8864 136.632 100.83 135.217 100.83ZM143.781 102.193C145.224 102.193 146.037 101.46 146.361 100.807H146.429V102H148.088V96.2045C148.088 93.6648 146.088 93.1591 144.702 93.1591C143.122 93.1591 141.668 93.7955 141.099 95.3864L142.696 95.75C142.946 95.1307 143.582 94.5341 144.724 94.5341C145.821 94.5341 146.383 95.108 146.383 96.0966V96.1364C146.383 96.7557 145.747 96.7443 144.179 96.9261C142.526 97.1193 140.832 97.5511 140.832 99.5341C140.832 101.25 142.122 102.193 143.781 102.193ZM144.151 100.83C143.19 100.83 142.497 100.398 142.497 99.5568C142.497 98.6477 143.304 98.3239 144.287 98.1932C144.838 98.1193 146.145 97.9716 146.389 97.7273V98.8523C146.389 99.8864 145.565 100.83 144.151 100.83ZM154.249 93.2727H152.459V91.1818H150.76V93.2727H149.482V94.6364H150.76V99.7898C150.754 101.375 151.965 102.142 153.305 102.114C153.845 102.108 154.209 102.006 154.408 101.932L154.101 100.528C153.987 100.551 153.777 100.602 153.504 100.602C152.953 100.602 152.459 100.42 152.459 99.4375V94.6364H154.249V93.2727ZM160.147 102H161.806V100.642H161.948C162.255 101.199 162.88 102.17 164.471 102.17C166.584 102.17 168.118 100.477 168.118 97.6534C168.118 94.8239 166.561 93.1591 164.453 93.1591C162.834 93.1591 162.249 94.1477 161.948 94.6875H161.846V90.3636H160.147V102ZM161.811 97.6364C161.811 95.8125 162.607 94.6023 164.09 94.6023C165.63 94.6023 166.402 95.9034 166.402 97.6364C166.402 99.3864 165.607 100.722 164.09 100.722C162.63 100.722 161.811 99.4716 161.811 97.6364ZM173.611 102.176C175.515 102.176 176.861 101.239 177.248 99.8182L175.64 99.5284C175.333 100.352 174.594 100.773 173.628 100.773C172.174 100.773 171.197 99.8295 171.151 98.1477H177.356V97.5455C177.356 94.392 175.469 93.1591 173.492 93.1591C171.06 93.1591 169.458 95.0114 169.458 97.6932C169.458 100.403 171.037 102.176 173.611 102.176ZM171.157 96.875C171.225 95.6364 172.123 94.5625 173.503 94.5625C174.822 94.5625 175.685 95.5398 175.691 96.875H171.157ZM179.065 102H180.763V96.6705C180.763 95.5284 181.644 94.7045 182.849 94.7045C183.201 94.7045 183.599 94.767 183.735 94.8068V93.1818C183.565 93.1591 183.229 93.142 183.013 93.142C181.991 93.142 181.116 93.7216 180.798 94.6591H180.707V93.2727H179.065V102ZM187.984 102.17C189.575 102.17 190.2 101.199 190.506 100.642H190.648V102H192.308V90.3636H190.609V94.6875H190.506C190.2 94.1477 189.62 93.1591 187.995 93.1591C185.887 93.1591 184.336 94.8239 184.336 97.6534C184.336 100.477 185.864 102.17 187.984 102.17ZM188.359 100.722C186.842 100.722 186.052 99.3864 186.052 97.6364C186.052 95.9034 186.825 94.6023 188.359 94.6023C189.842 94.6023 190.637 95.8125 190.637 97.6364C190.637 99.4716 189.825 100.722 188.359 100.722ZM198.232 102.176C200.693 102.176 202.301 100.375 202.301 97.6761C202.301 94.9602 200.693 93.1591 198.232 93.1591C195.772 93.1591 194.164 94.9602 194.164 97.6761C194.164 100.375 195.772 102.176 198.232 102.176ZM198.238 100.75C196.63 100.75 195.88 99.3466 195.88 97.6705C195.88 96 196.63 94.5795 198.238 94.5795C199.835 94.5795 200.585 96 200.585 97.6705C200.585 99.3466 199.835 100.75 198.238 100.75ZM205.72 96.8182C205.72 95.4261 206.572 94.6307 207.754 94.6307C208.907 94.6307 209.606 95.3864 209.606 96.6534V102H211.305V96.4489C211.305 94.2898 210.118 93.1591 208.333 93.1591C207.021 93.1591 206.163 93.767 205.76 94.6932H205.652V93.2727H204.021V102H205.72V96.8182ZM215.947 102.193C217.39 102.193 218.203 101.46 218.527 100.807H218.595V102H220.254V96.2045C220.254 93.6648 218.254 93.1591 216.868 93.1591C215.288 93.1591 213.834 93.7955 213.265 95.3864L214.862 95.75C215.112 95.1307 215.748 94.5341 216.89 94.5341C217.987 94.5341 218.549 95.108 218.549 96.0966V96.1364C218.549 96.7557 217.913 96.7443 216.345 96.9261C214.692 97.1193 212.998 97.5511 212.998 99.5341C212.998 101.25 214.288 102.193 215.947 102.193ZM216.317 100.83C215.356 100.83 214.663 100.398 214.663 99.5568C214.663 98.6477 215.47 98.3239 216.453 98.1932C217.004 98.1193 218.311 97.9716 218.555 97.7273V98.8523C218.555 99.8864 217.731 100.83 216.317 100.83ZM228.881 95.4034C228.528 94.0455 227.466 93.1591 225.579 93.1591C223.608 93.1591 222.21 94.1989 222.21 95.7443C222.21 96.983 222.96 97.8068 224.596 98.1705L226.074 98.4943C226.915 98.6818 227.307 99.0568 227.307 99.6023C227.307 100.278 226.585 100.807 225.471 100.807C224.454 100.807 223.801 100.369 223.596 99.5114L221.954 99.7614C222.239 101.307 223.523 102.176 225.483 102.176C227.591 102.176 229.051 101.057 229.051 99.4773C229.051 98.2443 228.267 97.483 226.665 97.1136L225.278 96.7955C224.318 96.5682 223.903 96.2443 223.909 95.6534C223.903 94.983 224.631 94.5057 225.596 94.5057C226.653 94.5057 227.142 95.0909 227.341 95.6761L228.881 95.4034ZM230.743 102H232.442V93.2727H230.743V102ZM231.601 91.9261C232.186 91.9261 232.675 91.4716 232.675 90.9148C232.675 90.358 232.186 89.8977 231.601 89.8977C231.01 89.8977 230.527 90.358 230.527 90.9148C230.527 91.4716 231.01 91.9261 231.601 91.9261ZM63.6818 126.193C65.125 126.193 65.9375 125.46 66.2614 124.807H66.3295V126H67.9886V120.205C67.9886 117.665 65.9886 117.159 64.6023 117.159C63.0227 117.159 61.5682 117.795 61 119.386L62.5966 119.75C62.8466 119.131 63.483 118.534 64.625 118.534C65.7216 118.534 66.2841 119.108 66.2841 120.097V120.136C66.2841 120.756 65.6477 120.744 64.0795 120.926C62.4261 121.119 60.733 121.551 60.733 123.534C60.733 125.25 62.0227 126.193 63.6818 126.193ZM64.0511 124.83C63.0909 124.83 62.3977 124.398 62.3977 123.557C62.3977 122.648 63.2045 122.324 64.1875 122.193C64.7386 122.119 66.0455 121.972 66.2898 121.727V122.852C66.2898 123.886 65.4659 124.83 64.0511 124.83ZM73.7345 129.455C75.9561 129.455 77.672 128.438 77.672 126.193V117.273H76.0072V118.688H75.8822C75.5811 118.148 74.9788 117.159 73.3538 117.159C71.2459 117.159 69.6947 118.824 69.6947 121.602C69.6947 124.386 71.28 125.869 73.3425 125.869C74.9447 125.869 75.5641 124.966 75.8709 124.409H75.9788V126.125C75.9788 127.494 75.0413 128.085 73.7516 128.085C72.3368 128.085 71.7856 127.375 71.4845 126.875L70.0243 127.477C70.4845 128.545 71.6493 129.455 73.7345 129.455ZM73.7175 124.46C72.2004 124.46 71.4106 123.295 71.4106 121.58C71.4106 119.903 72.1834 118.602 73.7175 118.602C75.2004 118.602 75.9959 119.812 75.9959 121.58C75.9959 123.381 75.1834 124.46 73.7175 124.46ZM82.3142 126.193C83.7574 126.193 84.5699 125.46 84.8937 124.807H84.9619V126H86.621V120.205C86.621 117.665 84.621 117.159 83.2346 117.159C81.6551 117.159 80.2006 117.795 79.6324 119.386L81.229 119.75C81.479 119.131 82.1153 118.534 83.2574 118.534C84.354 118.534 84.9165 119.108 84.9165 120.097V120.136C84.9165 120.756 84.2801 120.744 82.7119 120.926C81.0585 121.119 79.3653 121.551 79.3653 123.534C79.3653 125.25 80.6551 126.193 82.3142 126.193ZM82.6835 124.83C81.7233 124.83 81.0301 124.398 81.0301 123.557C81.0301 122.648 81.8369 122.324 82.8199 122.193C83.371 122.119 84.6778 121.972 84.9221 121.727V122.852C84.9221 123.886 84.0983 124.83 82.6835 124.83ZM88.7078 126H90.4067V120.67C90.4067 119.528 91.2873 118.705 92.4919 118.705C92.8442 118.705 93.2419 118.767 93.3783 118.807V117.182C93.2078 117.159 92.8726 117.142 92.6567 117.142C91.6339 117.142 90.7589 117.722 90.4408 118.659H90.3498V117.273H88.7078V126ZM101.998 126.17C103.589 126.17 104.214 125.199 104.521 124.642H104.663V126H106.322V114.364H104.623V118.688H104.521C104.214 118.148 103.634 117.159 102.009 117.159C99.9012 117.159 98.3501 118.824 98.3501 121.653C98.3501 124.477 99.8785 126.17 101.998 126.17ZM102.373 124.722C100.856 124.722 100.066 123.386 100.066 121.636C100.066 119.903 100.839 118.602 102.373 118.602C103.856 118.602 104.651 119.812 104.651 121.636C104.651 123.472 103.839 124.722 102.373 124.722ZM112.247 126.176C114.707 126.176 116.315 124.375 116.315 121.676C116.315 118.96 114.707 117.159 112.247 117.159C109.786 117.159 108.178 118.96 108.178 121.676C108.178 124.375 109.786 126.176 112.247 126.176ZM112.252 124.75C110.644 124.75 109.894 123.347 109.894 121.67C109.894 120 110.644 118.58 112.252 118.58C113.849 118.58 114.599 120 114.599 121.67C114.599 123.347 113.849 124.75 112.252 124.75ZM119.734 120.818C119.734 119.426 120.586 118.631 121.768 118.631C122.921 118.631 123.62 119.386 123.62 120.653V126H125.319V120.449C125.319 118.29 124.132 117.159 122.348 117.159C121.035 117.159 120.177 117.767 119.774 118.693H119.666V117.273H118.035V126H119.734V120.818ZM129.961 126.193C131.405 126.193 132.217 125.46 132.541 124.807H132.609V126H134.268V120.205C134.268 117.665 132.268 117.159 130.882 117.159C129.302 117.159 127.848 117.795 127.28 119.386L128.876 119.75C129.126 119.131 129.762 118.534 130.905 118.534C132.001 118.534 132.564 119.108 132.564 120.097V120.136C132.564 120.756 131.927 120.744 130.359 120.926C128.706 121.119 127.012 121.551 127.012 123.534C127.012 125.25 128.302 126.193 129.961 126.193ZM130.331 124.83C129.37 124.83 128.677 124.398 128.677 123.557C128.677 122.648 129.484 122.324 130.467 122.193C131.018 122.119 132.325 121.972 132.569 121.727V122.852C132.569 123.886 131.745 124.83 130.331 124.83ZM140.429 117.273H138.639V115.182H136.94V117.273H135.662V118.636H136.94V123.79C136.934 125.375 138.145 126.142 139.486 126.114C140.025 126.108 140.389 126.006 140.588 125.932L140.281 124.528C140.167 124.551 139.957 124.602 139.684 124.602C139.133 124.602 138.639 124.42 138.639 123.438V118.636H140.429V117.273ZM147.66 122.381C147.666 123.864 146.564 124.568 145.609 124.568C144.558 124.568 143.831 123.807 143.831 122.619V117.273H142.132V122.824C142.132 124.989 143.32 126.114 144.996 126.114C146.308 126.114 147.2 125.42 147.604 124.489H147.695V126H149.365V117.273H147.66V122.381ZM151.472 126H153.171V120.67C153.171 119.528 154.051 118.705 155.256 118.705C155.608 118.705 156.006 118.767 156.142 118.807V117.182C155.972 117.159 155.636 117.142 155.421 117.142C154.398 117.142 153.523 117.722 153.205 118.659H153.114V117.273H151.472V126ZM161.495 126H163.194V120.619C163.194 119.443 164.017 118.625 164.983 118.625C165.926 118.625 166.58 119.25 166.58 120.199V126H168.273V120.438C168.273 119.386 168.915 118.625 170.023 118.625C170.921 118.625 171.659 119.125 171.659 120.307V126H173.358V120.148C173.358 118.153 172.245 117.159 170.665 117.159C169.409 117.159 168.466 117.761 168.046 118.693H167.955C167.574 117.739 166.773 117.159 165.608 117.159C164.455 117.159 163.597 117.733 163.233 118.693H163.125V117.273H161.495V126ZM177.999 126.193C179.442 126.193 180.255 125.46 180.579 124.807H180.647V126H182.306V120.205C182.306 117.665 180.306 117.159 178.92 117.159C177.34 117.159 175.885 117.795 175.317 119.386L176.914 119.75C177.164 119.131 177.8 118.534 178.942 118.534C180.039 118.534 180.601 119.108 180.601 120.097V120.136C180.601 120.756 179.965 120.744 178.397 120.926C176.743 121.119 175.05 121.551 175.05 123.534C175.05 125.25 176.34 126.193 177.999 126.193ZM178.368 124.83C177.408 124.83 176.715 124.398 176.715 123.557C176.715 122.648 177.522 122.324 178.505 122.193C179.056 122.119 180.363 121.972 180.607 121.727V122.852C180.607 123.886 179.783 124.83 178.368 124.83ZM189.921 122.381C189.927 123.864 188.824 124.568 187.87 124.568C186.819 124.568 186.092 123.807 186.092 122.619V117.273H184.393V122.824C184.393 124.989 185.58 126.114 187.256 126.114C188.569 126.114 189.461 125.42 189.864 124.489H189.955V126H191.626V117.273H189.921V122.381ZM61.2784 150H62.9375V148.642H63.0795C63.3864 149.199 64.0114 150.17 65.6023 150.17C67.7159 150.17 69.25 148.477 69.25 145.653C69.25 142.824 67.6932 141.159 65.5852 141.159C63.9659 141.159 63.3807 142.148 63.0795 142.688H62.9773V138.364H61.2784V150ZM62.9432 145.636C62.9432 143.812 63.7386 142.602 65.2216 142.602C66.7614 142.602 67.5341 143.903 67.5341 145.636C67.5341 147.386 66.7386 148.722 65.2216 148.722C63.7614 148.722 62.9432 147.472 62.9432 145.636ZM74.743 150.176C76.6464 150.176 77.993 149.239 78.3794 147.818L76.7714 147.528C76.4646 148.352 75.726 148.773 74.7601 148.773C73.3055 148.773 72.3283 147.83 72.2828 146.148H78.4874V145.545C78.4874 142.392 76.601 141.159 74.6237 141.159C72.1919 141.159 70.5896 143.011 70.5896 145.693C70.5896 148.403 72.1692 150.176 74.743 150.176ZM72.2885 144.875C72.3567 143.636 73.2544 142.562 74.6351 142.562C75.9533 142.562 76.8169 143.54 76.8226 144.875H72.2885ZM80.1963 150H81.8952V144.67C81.8952 143.528 82.7758 142.705 83.9804 142.705C84.3327 142.705 84.7304 142.767 84.8668 142.807V141.182C84.6963 141.159 84.3611 141.142 84.1452 141.142C83.1224 141.142 82.2474 141.722 81.9293 142.659H81.8383V141.273H80.1963V150ZM89.1155 150.17C90.7064 150.17 91.3314 149.199 91.6382 148.642H91.7802V150H93.4393V138.364H91.7405V142.688H91.6382C91.3314 142.148 90.7518 141.159 89.1268 141.159C87.0189 141.159 85.4677 142.824 85.4677 145.653C85.4677 148.477 86.9961 150.17 89.1155 150.17ZM89.4905 148.722C87.9734 148.722 87.1836 147.386 87.1836 145.636C87.1836 143.903 87.9564 142.602 89.4905 142.602C90.9734 142.602 91.7689 143.812 91.7689 145.636C91.7689 147.472 90.9564 148.722 89.4905 148.722ZM99.3642 150.176C101.824 150.176 103.432 148.375 103.432 145.676C103.432 142.96 101.824 141.159 99.3642 141.159C96.904 141.159 95.296 142.96 95.296 145.676C95.296 148.375 96.904 150.176 99.3642 150.176ZM99.3699 148.75C97.7619 148.75 97.0119 147.347 97.0119 145.67C97.0119 144 97.7619 142.58 99.3699 142.58C100.966 142.58 101.716 144 101.716 145.67C101.716 147.347 100.966 148.75 99.3699 148.75ZM106.852 144.818C106.852 143.426 107.704 142.631 108.886 142.631C110.039 142.631 110.738 143.386 110.738 144.653V150H112.437V144.449C112.437 142.29 111.249 141.159 109.465 141.159C108.153 141.159 107.295 141.767 106.891 142.693H106.783V141.273H105.153V150H106.852V144.818ZM117.079 150.193C118.522 150.193 119.335 149.46 119.658 148.807H119.727V150H121.386V144.205C121.386 141.665 119.386 141.159 117.999 141.159C116.42 141.159 114.965 141.795 114.397 143.386L115.994 143.75C116.244 143.131 116.88 142.534 118.022 142.534C119.119 142.534 119.681 143.108 119.681 144.097V144.136C119.681 144.756 119.045 144.744 117.477 144.926C115.823 145.119 114.13 145.551 114.13 147.534C114.13 149.25 115.42 150.193 117.079 150.193ZM117.448 148.83C116.488 148.83 115.795 148.398 115.795 147.557C115.795 146.648 116.602 146.324 117.585 146.193C118.136 146.119 119.443 145.972 119.687 145.727V146.852C119.687 147.886 118.863 148.83 117.448 148.83ZM130.012 143.403C129.66 142.045 128.598 141.159 126.711 141.159C124.74 141.159 123.342 142.199 123.342 143.744C123.342 144.983 124.092 145.807 125.728 146.17L127.206 146.494C128.046 146.682 128.438 147.057 128.438 147.602C128.438 148.278 127.717 148.807 126.603 148.807C125.586 148.807 124.933 148.369 124.728 147.511L123.086 147.761C123.37 149.307 124.654 150.176 126.615 150.176C128.723 150.176 130.183 149.057 130.183 147.477C130.183 146.244 129.399 145.483 127.796 145.114L126.41 144.795C125.45 144.568 125.035 144.244 125.041 143.653C125.035 142.983 125.762 142.506 126.728 142.506C127.785 142.506 128.274 143.091 128.473 143.676L130.012 143.403ZM131.875 150H133.574V141.273H131.875V150ZM132.733 139.926C133.318 139.926 133.806 139.472 133.806 138.915C133.806 138.358 133.318 137.898 132.733 137.898C132.142 137.898 131.659 138.358 131.659 138.915C131.659 139.472 132.142 139.926 132.733 139.926ZM141.44 138.364H139.741V150H141.44V138.364ZM146.09 150.193C147.533 150.193 148.345 149.46 148.669 148.807H148.737V150H150.396V144.205C150.396 141.665 148.396 141.159 147.01 141.159C145.43 141.159 143.976 141.795 143.408 143.386L145.004 143.75C145.254 143.131 145.891 142.534 147.033 142.534C148.129 142.534 148.692 143.108 148.692 144.097V144.136C148.692 144.756 148.055 144.744 146.487 144.926C144.834 145.119 143.141 145.551 143.141 147.534C143.141 149.25 144.43 150.193 146.09 150.193ZM146.459 148.83C145.499 148.83 144.805 148.398 144.805 147.557C144.805 146.648 145.612 146.324 146.595 146.193C147.146 146.119 148.453 145.972 148.698 145.727V146.852C148.698 147.886 147.874 148.83 146.459 148.83ZM156.142 153.455C158.364 153.455 160.08 152.438 160.08 150.193V141.273H158.415V142.688H158.29C157.989 142.148 157.387 141.159 155.762 141.159C153.654 141.159 152.102 142.824 152.102 145.602C152.102 148.386 153.688 149.869 155.75 149.869C157.352 149.869 157.972 148.966 158.279 148.409H158.387V150.125C158.387 151.494 157.449 152.085 156.159 152.085C154.745 152.085 154.193 151.375 153.892 150.875L152.432 151.477C152.892 152.545 154.057 153.455 156.142 153.455ZM156.125 148.46C154.608 148.46 153.818 147.295 153.818 145.58C153.818 143.903 154.591 142.602 156.125 142.602C157.608 142.602 158.404 143.812 158.404 145.58C158.404 147.381 157.591 148.46 156.125 148.46ZM162.182 150H163.881V141.273H162.182V150ZM163.04 139.926C163.625 139.926 164.114 139.472 164.114 138.915C164.114 138.358 163.625 137.898 163.04 137.898C162.449 137.898 161.966 138.358 161.966 138.915C161.966 139.472 162.449 139.926 163.04 139.926Z" fill="#333333" style="fill:#333333;fill:color(display-p3 0.2000 0.2000 0.2000);fill-opacity:1;"/>
<path d="M60.9588 256H66.4815V254.866H62.2756V252.195H66.1449V251.065H62.2756V248.406H66.4304V247.273H60.9588V256ZM70.6993 258.591C72.3655 258.591 73.6524 257.828 73.6524 256.145V249.455H72.4039V250.516H72.3101C72.0843 250.111 71.6326 249.369 70.4138 249.369C68.8328 249.369 67.6695 250.618 67.6695 252.702C67.6695 254.79 68.8584 255.902 70.4053 255.902C71.607 255.902 72.0715 255.224 72.3016 254.807H72.3826V256.094C72.3826 257.121 71.6794 257.564 70.7121 257.564C69.651 257.564 69.2377 257.031 69.0118 256.656L67.9167 257.108C68.2618 257.909 69.1354 258.591 70.6993 258.591ZM70.6865 254.845C69.5488 254.845 68.9564 253.972 68.9564 252.685C68.9564 251.428 69.536 250.452 70.6865 250.452C71.7988 250.452 72.3953 251.359 72.3953 252.685C72.3953 254.036 71.786 254.845 70.6865 254.845ZM75.2293 256H76.5034V249.455H75.2293V256ZM75.8727 248.445C76.3116 248.445 76.6781 248.104 76.6781 247.686C76.6781 247.268 76.3116 246.923 75.8727 246.923C75.4295 246.923 75.0673 247.268 75.0673 247.686C75.0673 248.104 75.4295 248.445 75.8727 248.445ZM87.1378 250.03H88.4887C88.1947 248.33 86.7415 247.153 84.858 247.153C82.5995 247.153 80.9503 248.854 80.9503 251.641C80.9503 254.402 82.5526 256.119 84.9177 256.119C87.0356 256.119 88.5483 254.73 88.5483 252.527V251.534H85.118V252.621H87.2742C87.2444 254.027 86.3154 254.918 84.9177 254.918C83.3793 254.918 82.2586 253.754 82.2586 251.632C82.2586 249.518 83.3878 248.355 84.8665 248.355C86.0256 248.355 86.8097 248.994 87.1378 250.03ZM91.2597 252.114C91.2597 251.07 91.9203 250.473 92.8279 250.473C93.7058 250.473 94.2299 251.031 94.2299 251.99V256H95.5041V251.837C95.5041 250.205 94.6092 249.369 93.2626 249.369C92.2441 249.369 91.6305 249.812 91.3237 250.52H91.2427V247.273H89.9856V256H91.2597V252.114ZM98.9772 256.145C100.06 256.145 100.669 255.595 100.912 255.105H100.963V256H102.207V251.653C102.207 249.749 100.707 249.369 99.6675 249.369C98.4829 249.369 97.3919 249.847 96.9658 251.04L98.1633 251.312C98.3508 250.848 98.828 250.401 99.6846 250.401C100.507 250.401 100.929 250.831 100.929 251.572V251.602C100.929 252.067 100.452 252.058 99.2755 252.195C98.0354 252.339 96.7655 252.663 96.7655 254.151C96.7655 255.438 97.7329 256.145 98.9772 256.145ZM99.2542 255.122C98.534 255.122 98.0141 254.798 98.0141 254.168C98.0141 253.486 98.6192 253.243 99.3564 253.145C99.7698 253.089 100.75 252.979 100.933 252.795V253.639C100.933 254.415 100.315 255.122 99.2542 255.122ZM105.047 252.114C105.047 251.07 105.686 250.473 106.572 250.473C107.437 250.473 107.961 251.04 107.961 251.99V256H109.235V251.837C109.235 250.217 108.345 249.369 107.007 249.369C106.022 249.369 105.379 249.825 105.076 250.52H104.995V249.455H103.772V256H105.047V252.114ZM110.812 256H112.086V249.455H110.812V256ZM111.456 248.445C111.895 248.445 112.261 248.104 112.261 247.686C112.261 247.268 111.895 246.923 111.456 246.923C111.013 246.923 110.65 247.268 110.65 247.686C110.65 248.104 111.013 248.445 111.456 248.445ZM114.474 258.455C115.526 258.455 116.191 257.905 116.571 256.874L119.276 249.467L117.9 249.455L116.242 254.534H116.174L114.517 249.455H113.153L115.548 256.085L115.39 256.52C115.066 257.389 114.61 257.462 113.911 257.27L113.605 258.314C113.758 258.382 114.09 258.455 114.474 258.455ZM121.151 258.455C122.203 258.455 122.868 257.905 123.247 256.874L125.953 249.467L124.577 249.455L122.919 254.534H122.851L121.193 249.455H119.83L122.224 256.085L122.067 256.52C121.743 257.389 121.287 257.462 120.588 257.27L120.281 258.314C120.435 258.382 120.767 258.455 121.151 258.455ZM131.168 253.286C131.172 254.398 130.346 254.926 129.63 254.926C128.841 254.926 128.296 254.355 128.296 253.464V249.455H127.022V253.618C127.022 255.241 127.912 256.085 129.169 256.085C130.154 256.085 130.823 255.565 131.125 254.866H131.194V256H132.446V249.455H131.168V253.286Z" fill="black" fill-opacity="0.494118" style="fill:black;fill-opacity:0.494118;"/>
</g>
<g filter="url(#filter1_ddd_12_2511)">
<rect width="240" height="240" transform="translate(320 40)" fill="#EABFFF" style="fill:#EABFFF;fill:color(display-p3 0.9176 0.7490 1.0000);fill-opacity:1;"/>
<path d="M341.278 66.3636V78H342.949V69.5739H343.057L346.489 77.983H347.875L351.307 69.5795H351.415V78H353.085V66.3636H350.955L347.25 75.4091H347.114L343.409 66.3636H341.278ZM359.087 78.1761C360.99 78.1761 362.337 77.2386 362.723 75.8182L361.115 75.5284C360.808 76.3523 360.07 76.7727 359.104 76.7727C357.649 76.7727 356.672 75.8295 356.627 74.1477H362.831V73.5455C362.831 70.392 360.945 69.1591 358.967 69.1591C356.536 69.1591 354.933 71.0114 354.933 73.6932C354.933 76.4034 356.513 78.1761 359.087 78.1761ZM356.632 72.875C356.7 71.6364 357.598 70.5625 358.979 70.5625C360.297 70.5625 361.161 71.5398 361.166 72.875H356.632ZM364.54 78H366.239V72.6193C366.239 71.4432 367.063 70.625 368.029 70.625C368.972 70.625 369.625 71.25 369.625 72.1989V78H371.318V72.4375C371.318 71.3864 371.961 70.625 373.068 70.625C373.966 70.625 374.705 71.125 374.705 72.3068V78H376.404V72.1477C376.404 70.1534 375.29 69.1591 373.711 69.1591C372.455 69.1591 371.512 69.7614 371.091 70.6932H371C370.62 69.7386 369.818 69.1591 368.654 69.1591C367.5 69.1591 366.642 69.733 366.279 70.6932H366.171V69.2727H364.54V78ZM384.033 74.3807C384.039 75.8636 382.936 76.5682 381.982 76.5682C380.931 76.5682 380.204 75.8068 380.204 74.6193V69.2727H378.505V74.8239C378.505 76.9886 379.692 78.1136 381.368 78.1136C382.681 78.1136 383.573 77.4205 383.976 76.4886H384.067V78H385.738V69.2727H384.033V74.3807ZM391.111 78.1705C392.702 78.1705 393.327 77.1989 393.634 76.642H393.776V78H395.435V66.3636H393.736V70.6875H393.634C393.327 70.1477 392.748 69.1591 391.123 69.1591C389.015 69.1591 387.464 70.8239 387.464 73.6534C387.464 76.4773 388.992 78.1705 391.111 78.1705ZM391.486 76.7216C389.969 76.7216 389.18 75.3864 389.18 73.6364C389.18 71.9034 389.952 70.6023 391.486 70.6023C392.969 70.6023 393.765 71.8125 393.765 73.6364C393.765 75.4716 392.952 76.7216 391.486 76.7216ZM400.224 78.1932C401.667 78.1932 402.479 77.4602 402.803 76.8068H402.871V78H404.531V72.2045C404.531 69.6648 402.531 69.1591 401.144 69.1591C399.565 69.1591 398.11 69.7955 397.542 71.3864L399.138 71.75C399.388 71.1307 400.025 70.5341 401.167 70.5341C402.263 70.5341 402.826 71.108 402.826 72.0966V72.1364C402.826 72.7557 402.19 72.7443 400.621 72.9261C398.968 73.1193 397.275 73.5511 397.275 75.5341C397.275 77.25 398.565 78.1932 400.224 78.1932ZM400.593 76.8295C399.633 76.8295 398.94 76.3977 398.94 75.5568C398.94 74.6477 399.746 74.3239 400.729 74.1932C401.281 74.1193 402.587 73.9716 402.832 73.7273V74.8523C402.832 75.8864 402.008 76.8295 400.593 76.8295ZM408.316 72.8182C408.316 71.4261 409.197 70.6307 410.407 70.6307C411.578 70.6307 412.276 71.375 412.276 72.6534V78H413.975V72.4489C413.975 70.2727 412.782 69.1591 410.987 69.1591C409.629 69.1591 408.81 69.75 408.401 70.6932H408.293V66.3636H406.617V78H408.316V72.8182ZM416.066 78H417.765V74.9034L418.612 74.0568L421.578 78H423.663L419.89 73.017L423.424 69.2727H421.39L417.913 72.9659H417.765V66.3636H416.066V78ZM427.336 78.1932C428.78 78.1932 429.592 77.4602 429.916 76.8068H429.984V78H431.643V72.2045C431.643 69.6648 429.643 69.1591 428.257 69.1591C426.677 69.1591 425.223 69.7955 424.655 71.3864L426.251 71.75C426.501 71.1307 427.137 70.5341 428.28 70.5341C429.376 70.5341 429.939 71.108 429.939 72.0966V72.1364C429.939 72.7557 429.302 72.7443 427.734 72.9261C426.081 73.1193 424.387 73.5511 424.387 75.5341C424.387 77.25 425.677 78.1932 427.336 78.1932ZM427.706 76.8295C426.745 76.8295 426.052 76.3977 426.052 75.5568C426.052 74.6477 426.859 74.3239 427.842 74.1932C428.393 74.1193 429.7 73.9716 429.944 73.7273V74.8523C429.944 75.8864 429.12 76.8295 427.706 76.8295ZM435.429 72.8182C435.429 71.4261 436.281 70.6307 437.463 70.6307C438.616 70.6307 439.315 71.3864 439.315 72.6534V78H441.014V72.4489C441.014 70.2898 439.827 69.1591 438.042 69.1591C436.73 69.1591 435.872 69.767 435.469 70.6932H435.361V69.2727H433.73V78H435.429V72.8182ZM450.442 78.1705C452.033 78.1705 452.658 77.1989 452.965 76.642H453.107V78H454.766V66.3636H453.067V70.6875H452.965C452.658 70.1477 452.078 69.1591 450.453 69.1591C448.345 69.1591 446.794 70.8239 446.794 73.6534C446.794 76.4773 448.323 78.1705 450.442 78.1705ZM450.817 76.7216C449.3 76.7216 448.51 75.3864 448.51 73.6364C448.51 71.9034 449.283 70.6023 450.817 70.6023C452.3 70.6023 453.095 71.8125 453.095 73.6364C453.095 75.4716 452.283 76.7216 450.817 76.7216ZM460.691 78.1761C463.151 78.1761 464.759 76.375 464.759 73.6761C464.759 70.9602 463.151 69.1591 460.691 69.1591C458.23 69.1591 456.622 70.9602 456.622 73.6761C456.622 76.375 458.23 78.1761 460.691 78.1761ZM460.696 76.75C459.088 76.75 458.338 75.3466 458.338 73.6705C458.338 72 459.088 70.5795 460.696 70.5795C462.293 70.5795 463.043 72 463.043 73.6705C463.043 75.3466 462.293 76.75 460.696 76.75ZM468.178 72.8182C468.178 71.4261 469.03 70.6307 470.212 70.6307C471.365 70.6307 472.064 71.3864 472.064 72.6534V78H473.763V72.4489C473.763 70.2898 472.576 69.1591 470.792 69.1591C469.479 69.1591 468.621 69.767 468.218 70.6932H468.11V69.2727H466.479V78H468.178V72.8182ZM478.405 78.1932C479.848 78.1932 480.661 77.4602 480.985 76.8068H481.053V78H482.712V72.2045C482.712 69.6648 480.712 69.1591 479.326 69.1591C477.746 69.1591 476.292 69.7955 475.723 71.3864L477.32 71.75C477.57 71.1307 478.206 70.5341 479.348 70.5341C480.445 70.5341 481.008 71.108 481.008 72.0966V72.1364C481.008 72.7557 480.371 72.7443 478.803 72.9261C477.15 73.1193 475.456 73.5511 475.456 75.5341C475.456 77.25 476.746 78.1932 478.405 78.1932ZM478.775 76.8295C477.814 76.8295 477.121 76.3977 477.121 75.5568C477.121 74.6477 477.928 74.3239 478.911 74.1932C479.462 74.1193 480.769 73.9716 481.013 73.7273V74.8523C481.013 75.8864 480.189 76.8295 478.775 76.8295ZM488.873 69.2727H487.083V67.1818H485.384V69.2727H484.106V70.6364H485.384V75.7898C485.378 77.375 486.589 78.142 487.93 78.1136C488.469 78.108 488.833 78.0057 489.032 77.9318L488.725 76.5284C488.611 76.5511 488.401 76.6023 488.128 76.6023C487.577 76.6023 487.083 76.4205 487.083 75.4375V70.6364H488.873V69.2727ZM496.104 74.3807C496.11 75.8636 495.008 76.5682 494.053 76.5682C493.002 76.5682 492.275 75.8068 492.275 74.6193V69.2727H490.576V74.8239C490.576 76.9886 491.764 78.1136 493.44 78.1136C494.752 78.1136 495.644 77.4205 496.048 76.4886H496.139V78H497.809V69.2727H496.104V74.3807ZM499.916 78H501.615V72.6705C501.615 71.5284 502.495 70.7045 503.7 70.7045C504.052 70.7045 504.45 70.767 504.586 70.8068V69.1818C504.416 69.1591 504.08 69.142 503.865 69.142C502.842 69.142 501.967 69.7216 501.649 70.6591H501.558V69.2727H499.916V78ZM344.409 102.17C346 102.17 346.625 101.199 346.932 100.642H347.074V102H348.733V90.3636H347.034V94.6875H346.932C346.625 94.1477 346.045 93.1591 344.42 93.1591C342.312 93.1591 340.761 94.8239 340.761 97.6534C340.761 100.477 342.29 102.17 344.409 102.17ZM344.784 100.722C343.267 100.722 342.477 99.3864 342.477 97.6364C342.477 95.9034 343.25 94.6023 344.784 94.6023C346.267 94.6023 347.062 95.8125 347.062 97.6364C347.062 99.4716 346.25 100.722 344.784 100.722ZM353.521 102.193C354.965 102.193 355.777 101.46 356.101 100.807H356.169V102H357.828V96.2045C357.828 93.6648 355.828 93.1591 354.442 93.1591C352.862 93.1591 351.408 93.7955 350.84 95.3864L352.436 95.75C352.686 95.1307 353.323 94.5341 354.465 94.5341C355.561 94.5341 356.124 95.108 356.124 96.0966V96.1364C356.124 96.7557 355.487 96.7443 353.919 96.9261C352.266 97.1193 350.573 97.5511 350.573 99.5341C350.573 101.25 351.862 102.193 353.521 102.193ZM353.891 100.83C352.931 100.83 352.237 100.398 352.237 99.5568C352.237 98.6477 353.044 98.3239 354.027 98.1932C354.578 98.1193 355.885 97.9716 356.129 97.7273V98.8523C356.129 99.8864 355.306 100.83 353.891 100.83ZM361.614 90.3636H359.915V102H361.614V90.3636ZM366.263 102.193C367.706 102.193 368.519 101.46 368.843 100.807H368.911V102H370.57V96.2045C370.57 93.6648 368.57 93.1591 367.184 93.1591C365.604 93.1591 364.15 93.7955 363.581 95.3864L365.178 95.75C365.428 95.1307 366.064 94.5341 367.206 94.5341C368.303 94.5341 368.865 95.108 368.865 96.0966V96.1364C368.865 96.7557 368.229 96.7443 366.661 96.9261C365.008 97.1193 363.314 97.5511 363.314 99.5341C363.314 101.25 364.604 102.193 366.263 102.193ZM366.633 100.83C365.672 100.83 364.979 100.398 364.979 99.5568C364.979 98.6477 365.786 98.3239 366.769 98.1932C367.32 98.1193 368.627 97.9716 368.871 97.7273V98.8523C368.871 99.8864 368.047 100.83 366.633 100.83ZM372.657 102H374.356V96.6193C374.356 95.4432 375.18 94.625 376.145 94.625C377.089 94.625 377.742 95.25 377.742 96.1989V102H379.435V96.4375C379.435 95.3864 380.077 94.625 381.185 94.625C382.083 94.625 382.822 95.125 382.822 96.3068V102H384.52V96.1477C384.52 94.1534 383.407 93.1591 381.827 93.1591C380.572 93.1591 379.628 93.7614 379.208 94.6932H379.117C378.736 93.7386 377.935 93.1591 376.77 93.1591C375.617 93.1591 374.759 93.733 374.395 94.6932H374.287V93.2727H372.657V102ZM390.68 102H392.379V96.6193C392.379 95.4432 393.203 94.625 394.168 94.625C395.112 94.625 395.765 95.25 395.765 96.1989V102H397.458V96.4375C397.458 95.3864 398.1 94.625 399.208 94.625C400.106 94.625 400.845 95.125 400.845 96.3068V102H402.543V96.1477C402.543 94.1534 401.43 93.1591 399.85 93.1591C398.595 93.1591 397.651 93.7614 397.231 94.6932H397.14C396.759 93.7386 395.958 93.1591 394.793 93.1591C393.64 93.1591 392.782 93.733 392.418 94.6932H392.31V93.2727H390.68V102ZM408.406 102.176C410.309 102.176 411.656 101.239 412.042 99.8182L410.434 99.5284C410.127 100.352 409.389 100.773 408.423 100.773C406.968 100.773 405.991 99.8295 405.946 98.1477H412.15V97.5455C412.15 94.392 410.264 93.1591 408.286 93.1591C405.855 93.1591 404.252 95.0114 404.252 97.6932C404.252 100.403 405.832 102.176 408.406 102.176ZM405.951 96.875C406.019 95.6364 406.917 94.5625 408.298 94.5625C409.616 94.5625 410.48 95.5398 410.485 96.875H405.951ZM415.558 90.3636H413.859V102H415.558V90.3636ZM420.207 102.193C421.65 102.193 422.463 101.46 422.787 100.807H422.855V102H424.514V96.2045C424.514 93.6648 422.514 93.1591 421.128 93.1591C419.548 93.1591 418.094 93.7955 417.525 95.3864L419.122 95.75C419.372 95.1307 420.008 94.5341 421.15 94.5341C422.247 94.5341 422.809 95.108 422.809 96.0966V96.1364C422.809 96.7557 422.173 96.7443 420.605 96.9261C418.952 97.1193 417.258 97.5511 417.258 99.5341C417.258 101.25 418.548 102.193 420.207 102.193ZM420.577 100.83C419.616 100.83 418.923 100.398 418.923 99.5568C418.923 98.6477 419.73 98.3239 420.713 98.1932C421.264 98.1193 422.571 97.9716 422.815 97.7273V98.8523C422.815 99.8864 421.991 100.83 420.577 100.83ZM426.601 102H428.3V98.9034L429.146 98.0568L432.112 102H434.197L430.425 97.017L433.959 93.2727H431.925L428.447 96.9659H428.3V90.3636H426.601V102ZM440.859 98.3807C440.865 99.8636 439.763 100.568 438.808 100.568C437.757 100.568 437.03 99.8068 437.03 98.6193V93.2727H435.331V98.8239C435.331 100.989 436.519 102.114 438.195 102.114C439.507 102.114 440.399 101.42 440.803 100.489H440.894V102H442.564V93.2727H440.859V98.3807ZM444.671 102H446.37V98.9034L447.216 98.0568L450.182 102H452.267L448.495 97.017L452.029 93.2727H449.995L446.517 96.9659H446.37V90.3636H444.671V102ZM455.941 102.193C457.384 102.193 458.196 101.46 458.52 100.807H458.588V102H460.248V96.2045C460.248 93.6648 458.248 93.1591 456.861 93.1591C455.282 93.1591 453.827 93.7955 453.259 95.3864L454.855 95.75C455.105 95.1307 455.742 94.5341 456.884 94.5341C457.98 94.5341 458.543 95.108 458.543 96.0966V96.1364C458.543 96.7557 457.907 96.7443 456.338 96.9261C454.685 97.1193 452.992 97.5511 452.992 99.5341C452.992 101.25 454.282 102.193 455.941 102.193ZM456.31 100.83C455.35 100.83 454.657 100.398 454.657 99.5568C454.657 98.6477 455.463 98.3239 456.446 98.1932C456.998 98.1193 458.304 97.9716 458.549 97.7273V98.8523C458.549 99.8864 457.725 100.83 456.31 100.83ZM464.033 96.8182C464.033 95.4261 464.885 94.6307 466.067 94.6307C467.221 94.6307 467.92 95.3864 467.92 96.6534V102H469.618V96.4489C469.618 94.2898 468.431 93.1591 466.647 93.1591C465.334 93.1591 464.476 93.767 464.073 94.6932H463.965V93.2727H462.334V102H464.033V96.8182ZM479.046 102.17C480.637 102.17 481.262 101.199 481.569 100.642H481.711V102H483.37V90.3636H481.671V94.6875H481.569C481.262 94.1477 480.683 93.1591 479.058 93.1591C476.95 93.1591 475.398 94.8239 475.398 97.6534C475.398 100.477 476.927 102.17 479.046 102.17ZM479.421 100.722C477.904 100.722 477.114 99.3864 477.114 97.6364C477.114 95.9034 477.887 94.6023 479.421 94.6023C480.904 94.6023 481.7 95.8125 481.7 97.6364C481.7 99.4716 480.887 100.722 479.421 100.722ZM489.295 102.176C491.755 102.176 493.363 100.375 493.363 97.6761C493.363 94.9602 491.755 93.1591 489.295 93.1591C486.835 93.1591 485.227 94.9602 485.227 97.6761C485.227 100.375 486.835 102.176 489.295 102.176ZM489.301 100.75C487.693 100.75 486.943 99.3466 486.943 97.6705C486.943 96 487.693 94.5795 489.301 94.5795C490.897 94.5795 491.647 96 491.647 97.6705C491.647 99.3466 490.897 100.75 489.301 100.75ZM496.782 96.8182C496.782 95.4261 497.635 94.6307 498.816 94.6307C499.97 94.6307 500.669 95.3864 500.669 96.6534V102H502.368V96.4489C502.368 94.2898 501.18 93.1591 499.396 93.1591C498.083 93.1591 497.225 93.767 496.822 94.6932H496.714V93.2727H495.083V102H496.782V96.8182ZM507.01 102.193C508.453 102.193 509.265 101.46 509.589 100.807H509.657V102H511.317V96.2045C511.317 93.6648 509.317 93.1591 507.93 93.1591C506.351 93.1591 504.896 93.7955 504.328 95.3864L505.924 95.75C506.174 95.1307 506.811 94.5341 507.953 94.5341C509.049 94.5341 509.612 95.108 509.612 96.0966V96.1364C509.612 96.7557 508.976 96.7443 507.407 96.9261C505.754 97.1193 504.061 97.5511 504.061 99.5341C504.061 101.25 505.351 102.193 507.01 102.193ZM507.379 100.83C506.419 100.83 505.726 100.398 505.726 99.5568C505.726 98.6477 506.532 98.3239 507.515 98.1932C508.067 98.1193 509.373 97.9716 509.618 97.7273V98.8523C509.618 99.8864 508.794 100.83 507.379 100.83ZM519.943 95.4034C519.591 94.0455 518.528 93.1591 516.642 93.1591C514.67 93.1591 513.273 94.1989 513.273 95.7443C513.273 96.983 514.023 97.8068 515.659 98.1705L517.136 98.4943C517.977 98.6818 518.369 99.0568 518.369 99.6023C518.369 100.278 517.648 100.807 516.534 100.807C515.517 100.807 514.864 100.369 514.659 99.5114L513.017 99.7614C513.301 101.307 514.585 102.176 516.545 102.176C518.653 102.176 520.114 101.057 520.114 99.4773C520.114 98.2443 519.329 97.483 517.727 97.1136L516.341 96.7955C515.381 96.5682 514.966 96.2443 514.971 95.6534C514.966 94.983 515.693 94.5057 516.659 94.5057C517.716 94.5057 518.204 95.0909 518.403 95.6761L519.943 95.4034ZM521.805 102H523.504V93.2727H521.805V102ZM522.663 91.9261C523.249 91.9261 523.737 91.4716 523.737 90.9148C523.737 90.358 523.249 89.8977 522.663 89.8977C522.072 89.8977 521.59 90.358 521.59 90.9148C521.59 91.4716 522.072 91.9261 522.663 91.9261Z" fill="#333333" style="fill:#333333;fill:color(display-p3 0.2000 0.2000 0.2000);fill-opacity:1;"/>
<path d="M340.959 256H346.482V254.866H342.276V252.195H346.145V251.065H342.276V248.406H346.43V247.273H340.959V256ZM350.699 258.591C352.366 258.591 353.652 257.828 353.652 256.145V249.455H352.404V250.516H352.31C352.084 250.111 351.633 249.369 350.414 249.369C348.833 249.369 347.669 250.618 347.669 252.702C347.669 254.79 348.858 255.902 350.405 255.902C351.607 255.902 352.071 255.224 352.302 254.807H352.383V256.094C352.383 257.121 351.679 257.564 350.712 257.564C349.651 257.564 349.238 257.031 349.012 256.656L347.917 257.108C348.262 257.909 349.135 258.591 350.699 258.591ZM350.687 254.845C349.549 254.845 348.956 253.972 348.956 252.685C348.956 251.428 349.536 250.452 350.687 250.452C351.799 250.452 352.395 251.359 352.395 252.685C352.395 254.036 351.786 254.845 350.687 254.845ZM355.229 256H356.503V249.455H355.229V256ZM355.873 248.445C356.312 248.445 356.678 248.104 356.678 247.686C356.678 247.268 356.312 246.923 355.873 246.923C355.43 246.923 355.067 247.268 355.067 247.686C355.067 248.104 355.43 248.445 355.873 248.445ZM367.138 250.03H368.489C368.195 248.33 366.742 247.153 364.858 247.153C362.599 247.153 360.95 248.854 360.95 251.641C360.95 254.402 362.553 256.119 364.918 256.119C367.036 256.119 368.548 254.73 368.548 252.527V251.534H365.118V252.621H367.274C367.244 254.027 366.315 254.918 364.918 254.918C363.379 254.918 362.259 253.754 362.259 251.632C362.259 249.518 363.388 248.355 364.867 248.355C366.026 248.355 366.81 248.994 367.138 250.03ZM371.26 252.114C371.26 251.07 371.92 250.473 372.828 250.473C373.706 250.473 374.23 251.031 374.23 251.99V256H375.504V251.837C375.504 250.205 374.609 249.369 373.263 249.369C372.244 249.369 371.63 249.812 371.324 250.52H371.243V247.273H369.986V256H371.26V252.114ZM378.977 256.145C380.06 256.145 380.669 255.595 380.912 255.105H380.963V256H382.207V251.653C382.207 249.749 380.707 249.369 379.668 249.369C378.483 249.369 377.392 249.847 376.966 251.04L378.163 251.312C378.351 250.848 378.828 250.401 379.685 250.401C380.507 250.401 380.929 250.831 380.929 251.572V251.602C380.929 252.067 380.452 252.058 379.275 252.195C378.035 252.339 376.766 252.663 376.766 254.151C376.766 255.438 377.733 256.145 378.977 256.145ZM379.254 255.122C378.534 255.122 378.014 254.798 378.014 254.168C378.014 253.486 378.619 253.243 379.356 253.145C379.77 253.089 380.75 252.979 380.933 252.795V253.639C380.933 254.415 380.315 255.122 379.254 255.122ZM385.047 252.114C385.047 251.07 385.686 250.473 386.572 250.473C387.437 250.473 387.961 251.04 387.961 251.99V256H389.235V251.837C389.235 250.217 388.345 249.369 387.007 249.369C386.022 249.369 385.379 249.825 385.076 250.52H384.995V249.455H383.772V256H385.047V252.114ZM390.812 256H392.086V249.455H390.812V256ZM391.456 248.445C391.895 248.445 392.261 248.104 392.261 247.686C392.261 247.268 391.895 246.923 391.456 246.923C391.013 246.923 390.65 247.268 390.65 247.686C390.65 248.104 391.013 248.445 391.456 248.445ZM394.474 258.455C395.526 258.455 396.191 257.905 396.571 256.874L399.276 249.467L397.9 249.455L396.242 254.534H396.174L394.517 249.455H393.153L395.548 256.085L395.39 256.52C395.066 257.389 394.61 257.462 393.911 257.27L393.605 258.314C393.758 258.382 394.09 258.455 394.474 258.455ZM401.151 258.455C402.203 258.455 402.868 257.905 403.247 256.874L405.953 249.467L404.577 249.455L402.919 254.534H402.851L401.193 249.455H399.83L402.224 256.085L402.067 256.52C401.743 257.389 401.287 257.462 400.588 257.27L400.281 258.314C400.435 258.382 400.767 258.455 401.151 258.455ZM411.168 253.286C411.172 254.398 410.346 254.926 409.63 254.926C408.841 254.926 408.296 254.355 408.296 253.464V249.455H407.022V253.618C407.022 255.241 407.912 256.085 409.169 256.085C410.154 256.085 410.823 255.565 411.125 254.866H411.194V256H412.446V249.455H411.168V253.286Z" fill="black" fill-opacity="0.494118" style="fill:black;fill-opacity:0.494118;"/>
</g>
<defs>
<filter id="filter0_ddd_12_2511" x="30" y="38" width="260" height="260" filterUnits="userSpaceOnUse" color-interpolation-filters="sRGB">
<feFlood flood-opacity="0" result="BackgroundImageFix"/>
<feColorMatrix in="SourceAlpha" type="matrix" values="0 0 0 0 0 0 0 0 0 0 0 0 0 0 0 0 0 0 127 0" result="hardAlpha"/>
<feOffset dy="2.5"/>
<feGaussianBlur stdDeviation="1"/>
<feColorMatrix type="matrix" values="0 0 0 0 0 0 0 0 0 0 0 0 0 0 0 0 0 0 0.02 0"/>
<feBlend mode="normal" in2="BackgroundImageFix" result="effect1_dropShadow_12_2511"/>
<feColorMatrix in="SourceAlpha" type="matrix" values="0 0 0 0 0 0 0 0 0 0 0 0 0 0 0 0 0 0 127 0" result="hardAlpha"/>
<feOffset dy="3"/>
<feGaussianBlur stdDeviation="2.5"/>
<feColorMatrix type="matrix" values="0 0 0 0 0 0 0 0 0 0 0 0 0 0 0 0 0 0 0.04 0"/>
<feBlend mode="normal" in2="effect1_dropShadow_12_2511" result="effect2_dropShadow_12_2511"/>
<feColorMatrix in="SourceAlpha" type="matrix" values="0 0 0 0 0 0 0 0 0 0 0 0 0 0 0 0 0 0 127 0" result="hardAlpha"/>
<feOffset dy="8"/>
<feGaussianBlur stdDeviation="5"/>
<feColorMatrix type="matrix" values="0 0 0 0 0 0 0 0 0 0 0 0 0 0 0 0 0 0 0.08 0"/>
<feBlend mode="normal" in2="effect2_dropShadow_12_2511" result="effect3_dropShadow_12_2511"/>
<feBlend mode="normal" in="SourceGraphic" in2="effect3_dropShadow_12_2511" result="shape"/>
</filter>
<filter id="filter1_ddd_12_2511" x="310" y="38" width="260" height="260" filterUnits="userSpaceOnUse" color-interpolation-filters="sRGB">
<feFlood flood-opacity="0" result="BackgroundImageFix"/>
<feColorMatrix in="SourceAlpha" type="matrix" values="0 0 0 0 0 0 0 0 0 0 0 0 0 0 0 0 0 0 127 0" result="hardAlpha"/>
<feOffset dy="2.5"/>
<feGaussianBlur stdDeviation="1"/>
<feColorMatrix type="matrix" values="0 0 0 0 0 0 0 0 0 0 0 0 0 0 0 0 0 0 0.02 0"/>
<feBlend mode="normal" in2="BackgroundImageFix" result="effect1_dropShadow_12_2511"/>
<feColorMatrix in="SourceAlpha" type="matrix" values="0 0 0 0 0 0 0 0 0 0 0 0 0 0 0 0 0 0 127 0" result="hardAlpha"/>
<feOffset dy="3"/>
<feGaussianBlur stdDeviation="2.5"/>
<feColorMatrix type="matrix" values="0 0 0 0 0 0 0 0 0 0 0 0 0 0 0 0 0 0 0.04 0"/>
<feBlend mode="normal" in2="effect1_dropShadow_12_2511" result="effect2_dropShadow_12_2511"/>
<feColorMatrix in="SourceAlpha" type="matrix" values="0 0 0 0 0 0 0 0 0 0 0 0 0 0 0 0 0 0 127 0" result="hardAlpha"/>
<feOffset dy="8"/>
<feGaussianBlur stdDeviation="5"/>
<feColorMatrix type="matrix" values="0 0 0 0 0 0 0 0 0 0 0 0 0 0 0 0 0 0 0.08 0"/>
<feBlend mode="normal" in2="effect2_dropShadow_12_2511" result="effect3_dropShadow_12_2511"/>
<feBlend mode="normal" in="SourceGraphic" in2="effect3_dropShadow_12_2511" result="shape"/>
</filter>
</defs>
</svg>
