<svg width="8530" height="3313" viewBox="0 0 8530 3313" fill="none" xmlns="http://www.w3.org/2000/svg">
<rect width="8530" height="3313" fill="white" style="fill:white;fill-opacity:1;"/>
<path d="M354.342 304.182V353.772C354.342 362.746 348.053 369.228 338.388 369.228C328.761 369.228 322.433 362.746 322.433 353.772V304.182H305.827V355.191C305.827 372.372 318.79 383.84 338.388 383.84C357.909 383.84 370.949 372.372 370.949 355.191V304.182H354.342ZM430.943 340.617C429.486 329.763 420.742 323.051 405.861 323.051C390.788 323.051 380.855 330.032 380.894 341.384C380.855 350.205 386.416 355.919 397.922 358.22L408.124 360.253C413.263 361.289 415.602 363.168 415.679 366.121C415.602 369.611 411.805 372.104 406.091 372.104C400.261 372.104 396.388 369.611 395.391 364.817L379.321 365.661C380.855 376.936 390.443 383.878 406.053 383.878C421.317 383.878 432.247 376.093 432.286 364.472C432.247 355.958 426.686 350.857 415.257 348.517L404.595 346.37C399.111 345.181 397.078 343.301 397.117 340.463C397.078 336.935 401.067 334.634 406.129 334.634C411.805 334.634 415.18 337.74 415.986 341.537L430.943 340.617ZM467.044 383.878C481.618 383.878 491.436 376.783 493.737 365.853L478.627 364.855C476.977 369.343 472.759 371.682 467.313 371.682C459.144 371.682 453.966 366.274 453.966 357.492V357.453H494.083V352.966C494.083 332.946 481.963 323.051 466.392 323.051C449.057 323.051 437.82 335.362 437.82 353.541C437.82 372.219 448.904 383.878 467.044 383.878ZM453.966 347.328C454.311 340.617 459.412 335.247 466.661 335.247C473.756 335.247 478.665 340.31 478.703 347.328H453.966ZM502.368 382.728H518.707V349.399C518.707 342.151 523.999 337.165 531.209 337.165C533.472 337.165 536.579 337.549 538.113 338.047V323.55C536.655 323.205 534.623 322.975 532.974 322.975C526.377 322.975 520.969 326.81 518.822 334.097H518.208V323.818H502.368V382.728ZM567.111 382.728H583.717V350.282H615.665V336.59H583.717V317.874H619.116V304.182H567.111V382.728ZM643.942 304.182H627.604V382.728H643.942V304.182ZM681.27 383.878C699.142 383.878 710.264 371.644 710.264 353.503C710.264 335.247 699.142 323.051 681.27 323.051C663.398 323.051 652.276 335.247 652.276 353.503C652.276 371.644 663.398 383.878 681.27 383.878ZM681.347 371.222C673.101 371.222 668.882 363.666 668.882 353.388C668.882 343.11 673.101 335.516 681.347 335.516C689.439 335.516 693.658 343.11 693.658 353.388C693.658 363.666 689.439 371.222 681.347 371.222ZM728.656 382.728H745.915L756.04 345.679H756.768L766.893 382.728H784.19L800.183 323.818H783.692L774.717 363.168H774.219L764.554 323.818H748.331L738.819 363.398H738.282L729.155 323.818H712.625L728.656 382.728Z" fill="#333333" style="fill:#333333;fill:color(display-p3 0.2000 0.2000 0.2000);fill-opacity:1;"/>
<rect x="2331" y="893" width="488" height="396.5" rx="80" fill="#D99BFF" style="fill:#D99BFF;fill:color(display-p3 0.8510 0.6078 1.0000);fill-opacity:1;"/>
<path d="M2498.74 1114H2526.86V1107.95H2505.76V1067.45H2498.74V1114ZM2547.62 1114.7C2557.46 1114.7 2563.89 1107.5 2563.89 1096.7C2563.89 1085.84 2557.46 1078.64 2547.62 1078.64C2537.78 1078.64 2531.35 1085.84 2531.35 1096.7C2531.35 1107.5 2537.78 1114.7 2547.62 1114.7ZM2547.64 1109C2541.21 1109 2538.21 1103.39 2538.21 1096.68C2538.21 1090 2541.21 1084.32 2547.64 1084.32C2554.03 1084.32 2557.03 1090 2557.03 1096.68C2557.03 1103.39 2554.03 1109 2547.64 1109ZM2584.7 1127.82C2593.59 1127.82 2600.45 1123.75 2600.45 1114.77V1079.09H2593.8V1084.75H2593.3C2592.09 1082.59 2589.68 1078.64 2583.18 1078.64C2574.75 1078.64 2568.55 1085.3 2568.55 1096.41C2568.55 1107.55 2574.89 1113.48 2583.14 1113.48C2589.55 1113.48 2592.02 1109.86 2593.25 1107.64H2593.68V1114.5C2593.68 1119.98 2589.93 1122.34 2584.77 1122.34C2579.11 1122.34 2576.91 1119.5 2575.7 1117.5L2569.86 1119.91C2571.7 1124.18 2576.36 1127.82 2584.7 1127.82ZM2584.64 1107.84C2578.57 1107.84 2575.41 1103.18 2575.41 1096.32C2575.41 1089.61 2578.5 1084.41 2584.64 1084.41C2590.57 1084.41 2593.75 1089.25 2593.75 1096.32C2593.75 1103.52 2590.5 1107.84 2584.64 1107.84ZM2608.16 1114H2614.96V1079.09H2608.16V1114ZM2611.59 1073.7C2613.93 1073.7 2615.89 1071.89 2615.89 1069.66C2615.89 1067.43 2613.93 1065.59 2611.59 1065.59C2609.23 1065.59 2607.3 1067.43 2607.3 1069.66C2607.3 1071.89 2609.23 1073.7 2611.59 1073.7ZM2629.49 1093.27C2629.49 1087.7 2632.89 1084.52 2637.62 1084.52C2642.24 1084.52 2645.03 1087.55 2645.03 1092.61V1114H2651.83V1091.8C2651.83 1083.16 2647.08 1078.64 2639.94 1078.64C2634.69 1078.64 2631.26 1081.07 2629.64 1084.77H2629.21V1079.09H2622.69V1114H2629.49V1093.27Z" fill="#333333" style="fill:#333333;fill:color(display-p3 0.2000 0.2000 0.2000);fill-opacity:1;"/>
<rect x="3371" y="1279" width="488" height="396.5" rx="80" fill="#D99BFF" style="fill:#D99BFF;fill:color(display-p3 0.8510 0.6078 1.0000);fill-opacity:1;"/>
<path d="M3458.45 1500H3465.47V1479.7H3488.68V1500H3495.72V1453.45H3488.68V1473.68H3465.47V1453.45H3458.45V1500ZM3518.7 1500.7C3528.54 1500.7 3534.97 1493.5 3534.97 1482.7C3534.97 1471.84 3528.54 1464.64 3518.7 1464.64C3508.86 1464.64 3502.43 1471.84 3502.43 1482.7C3502.43 1493.5 3508.86 1500.7 3518.7 1500.7ZM3518.72 1495C3512.29 1495 3509.29 1489.39 3509.29 1482.68C3509.29 1476 3512.29 1470.32 3518.72 1470.32C3525.11 1470.32 3528.11 1476 3528.11 1482.68C3528.11 1489.39 3525.11 1495 3518.72 1495ZM3541.15 1500H3547.94V1478.48C3547.94 1473.77 3551.24 1470.5 3555.1 1470.5C3558.88 1470.5 3561.49 1473 3561.49 1476.8V1500H3568.26V1477.75C3568.26 1473.55 3570.83 1470.5 3575.26 1470.5C3578.85 1470.5 3581.81 1472.5 3581.81 1477.23V1500H3588.6V1476.59C3588.6 1468.61 3584.15 1464.64 3577.83 1464.64C3572.81 1464.64 3569.04 1467.05 3567.35 1470.77H3566.99C3565.47 1466.95 3562.26 1464.64 3557.6 1464.64C3552.99 1464.64 3549.56 1466.93 3548.1 1470.77H3547.67V1465.09H3541.15V1500ZM3611.35 1500.7C3618.96 1500.7 3624.35 1496.95 3625.89 1491.27L3619.46 1490.11C3618.24 1493.41 3615.28 1495.09 3611.42 1495.09C3605.6 1495.09 3601.69 1491.32 3601.51 1484.59H3626.33V1482.18C3626.33 1469.57 3618.78 1464.64 3610.87 1464.64C3601.14 1464.64 3594.74 1472.05 3594.74 1482.77C3594.74 1493.61 3601.05 1500.7 3611.35 1500.7ZM3601.53 1479.5C3601.8 1474.55 3605.39 1470.25 3610.92 1470.25C3616.19 1470.25 3619.64 1474.16 3619.67 1479.5H3601.53ZM3632.46 1513.09H3639.25V1494.57H3639.66C3640.89 1496.8 3643.39 1500.68 3649.75 1500.68C3658.21 1500.68 3664.34 1493.91 3664.34 1482.61C3664.34 1471.3 3658.12 1464.64 3649.69 1464.64C3643.21 1464.64 3640.87 1468.59 3639.66 1470.75H3639.09V1465.09H3632.46V1513.09ZM3639.12 1482.55C3639.12 1475.25 3642.3 1470.41 3648.23 1470.41C3654.39 1470.41 3657.48 1475.61 3657.48 1482.55C3657.48 1489.55 3654.3 1494.89 3648.23 1494.89C3642.39 1494.89 3639.12 1489.89 3639.12 1482.55ZM3680.71 1500.77C3686.48 1500.77 3689.73 1497.84 3691.03 1495.23H3691.3V1500H3697.94V1476.82C3697.94 1466.66 3689.94 1464.64 3684.39 1464.64C3678.07 1464.64 3672.25 1467.18 3669.98 1473.55L3676.37 1475C3677.37 1472.52 3679.91 1470.14 3684.48 1470.14C3688.87 1470.14 3691.12 1472.43 3691.12 1476.39V1476.55C3691.12 1479.02 3688.57 1478.98 3682.3 1479.7C3675.69 1480.48 3668.91 1482.2 3668.91 1490.14C3668.91 1497 3674.07 1500.77 3680.71 1500.77ZM3682.19 1495.32C3678.35 1495.32 3675.57 1493.59 3675.57 1490.23C3675.57 1486.59 3678.8 1485.3 3682.73 1484.77C3684.94 1484.48 3690.16 1483.89 3691.14 1482.91V1487.41C3691.14 1491.55 3687.85 1495.32 3682.19 1495.32ZM3720.22 1513.82C3729.1 1513.82 3735.97 1509.75 3735.97 1500.77V1465.09H3729.31V1470.75H3728.81C3727.6 1468.59 3725.19 1464.64 3718.69 1464.64C3710.26 1464.64 3704.06 1471.3 3704.06 1482.41C3704.06 1493.55 3710.4 1499.48 3718.65 1499.48C3725.06 1499.48 3727.53 1495.86 3728.76 1493.64H3729.19V1500.5C3729.19 1505.98 3725.44 1508.34 3720.28 1508.34C3714.62 1508.34 3712.42 1505.5 3711.22 1503.5L3705.37 1505.91C3707.22 1510.18 3711.87 1513.82 3720.22 1513.82ZM3720.15 1493.84C3714.08 1493.84 3710.92 1489.18 3710.92 1482.32C3710.92 1475.61 3714.01 1470.41 3720.15 1470.41C3726.08 1470.41 3729.26 1475.25 3729.26 1482.32C3729.26 1489.52 3726.01 1493.84 3720.15 1493.84ZM3758.72 1500.7C3766.33 1500.7 3771.72 1496.95 3773.26 1491.27L3766.83 1490.11C3765.6 1493.41 3762.65 1495.09 3758.79 1495.09C3752.97 1495.09 3749.06 1491.32 3748.88 1484.59H3773.69V1482.18C3773.69 1469.57 3766.15 1464.64 3758.24 1464.64C3748.51 1464.64 3742.1 1472.05 3742.1 1482.77C3742.1 1493.61 3748.42 1500.7 3758.72 1500.7ZM3748.9 1479.5C3749.17 1474.55 3752.76 1470.25 3758.29 1470.25C3763.56 1470.25 3767.01 1474.16 3767.04 1479.5H3748.9Z" fill="#333333" style="fill:#333333;fill:color(display-p3 0.2000 0.2000 0.2000);fill-opacity:1;"/>
<rect x="5295" y="543" width="488" height="396.5" rx="80" fill="#D99BFF" style="fill:#D99BFF;fill:color(display-p3 0.8510 0.6078 1.0000);fill-opacity:1;"/>
<path d="M5341.75 764H5348.77V749.523L5354.27 743.205L5369.32 764H5377.77L5358.93 738.409L5377.7 717.455H5368.86L5349.34 739.682H5348.77V717.455H5341.75V764ZM5392.45 764.773C5398.23 764.773 5401.48 761.841 5402.77 759.227H5403.05V764H5409.68V740.818C5409.68 730.659 5401.68 728.636 5396.14 728.636C5389.82 728.636 5384 731.182 5381.73 737.545L5388.11 739C5389.11 736.523 5391.66 734.136 5396.23 734.136C5400.61 734.136 5402.86 736.432 5402.86 740.386V740.545C5402.86 743.023 5400.32 742.977 5394.05 743.705C5387.43 744.477 5380.66 746.205 5380.66 754.136C5380.66 761 5385.82 764.773 5392.45 764.773ZM5393.93 759.318C5390.09 759.318 5387.32 757.591 5387.32 754.227C5387.32 750.591 5390.55 749.295 5394.48 748.773C5396.68 748.477 5401.91 747.886 5402.89 746.909V751.409C5402.89 755.545 5399.59 759.318 5393.93 759.318ZM5417.87 764H5424.51V758.568H5425.08C5426.3 760.795 5428.8 764.682 5435.17 764.682C5443.62 764.682 5449.76 757.909 5449.76 746.614C5449.76 735.295 5443.53 728.636 5435.1 728.636C5428.62 728.636 5426.28 732.591 5425.08 734.75H5424.67V717.455H5417.87V764ZM5424.53 746.545C5424.53 739.25 5427.71 734.409 5433.64 734.409C5439.8 734.409 5442.89 739.614 5442.89 746.545C5442.89 753.545 5439.71 758.886 5433.64 758.886C5427.8 758.886 5424.53 753.886 5424.53 746.545ZM5466.14 764.773C5471.91 764.773 5475.16 761.841 5476.46 759.227H5476.73V764H5483.37V740.818C5483.37 730.659 5475.37 728.636 5469.82 728.636C5463.5 728.636 5457.68 731.182 5455.41 737.545L5461.8 739C5462.8 736.523 5465.34 734.136 5469.91 734.136C5474.3 734.136 5476.55 736.432 5476.55 740.386V740.545C5476.55 743.023 5474 742.977 5467.73 743.705C5461.12 744.477 5454.34 746.205 5454.34 754.136C5454.34 761 5459.5 764.773 5466.14 764.773ZM5467.62 759.318C5463.78 759.318 5461 757.591 5461 754.227C5461 750.591 5464.23 749.295 5468.16 748.773C5470.37 748.477 5475.59 747.886 5476.57 746.909V751.409C5476.57 755.545 5473.28 759.318 5467.62 759.318ZM5491.01 764H5497.8V742.682C5497.8 738.114 5501.33 734.818 5506.15 734.818C5507.55 734.818 5509.15 735.068 5509.69 735.227V728.727C5509.01 728.636 5507.67 728.568 5506.8 728.568C5502.71 728.568 5499.21 730.886 5497.94 734.636H5497.58V729.091H5491.01V764ZM5545.99 729.091H5538.83V720.727H5532.03V729.091H5526.92V734.545H5532.03V755.159C5532.01 761.5 5536.85 764.568 5542.22 764.455C5544.38 764.432 5545.83 764.023 5546.62 763.727L5545.4 758.114C5544.94 758.205 5544.1 758.409 5543.01 758.409C5540.81 758.409 5538.83 757.682 5538.83 753.75V734.545H5545.99V729.091ZM5566.77 764.705C5574.38 764.705 5579.77 760.955 5581.31 755.273L5574.88 754.114C5573.65 757.409 5570.7 759.091 5566.84 759.091C5561.02 759.091 5557.11 755.318 5556.93 748.591H5581.75V746.182C5581.75 733.568 5574.2 728.636 5566.29 728.636C5556.56 728.636 5550.15 736.045 5550.15 746.773C5550.15 757.614 5556.47 764.705 5566.77 764.705ZM5556.95 743.5C5557.22 738.545 5560.81 734.25 5566.34 734.25C5571.61 734.25 5575.06 738.159 5575.09 743.5H5556.95ZM5587.88 764H5594.67V742.682C5594.67 738.114 5598.2 734.818 5603.01 734.818C5604.42 734.818 5606.01 735.068 5606.56 735.227V728.727C5605.88 728.636 5604.54 728.568 5603.67 728.568C5599.58 728.568 5596.08 730.886 5594.81 734.636H5594.45V729.091H5587.88V764ZM5611.58 764H5618.21V758.568H5618.78C5620.01 760.795 5622.51 764.682 5628.87 764.682C5637.33 764.682 5643.46 757.909 5643.46 746.614C5643.46 735.295 5637.24 728.636 5628.8 728.636C5622.33 728.636 5619.99 732.591 5618.78 734.75H5618.37V717.455H5611.58V764ZM5618.24 746.545C5618.24 739.25 5621.42 734.409 5627.35 734.409C5633.51 734.409 5636.6 739.614 5636.6 746.545C5636.6 753.545 5633.42 758.886 5627.35 758.886C5621.51 758.886 5618.24 753.886 5618.24 746.545ZM5659.85 764.773C5665.62 764.773 5668.87 761.841 5670.16 759.227H5670.44V764H5677.07V740.818C5677.07 730.659 5669.07 728.636 5663.53 728.636C5657.21 728.636 5651.39 731.182 5649.12 737.545L5655.5 739C5656.5 736.523 5659.05 734.136 5663.62 734.136C5668 734.136 5670.25 736.432 5670.25 740.386V740.545C5670.25 743.023 5667.71 742.977 5661.44 743.705C5654.82 744.477 5648.05 746.205 5648.05 754.136C5648.05 761 5653.21 764.773 5659.85 764.773ZM5661.32 759.318C5657.48 759.318 5654.71 757.591 5654.71 754.227C5654.71 750.591 5657.94 749.295 5661.87 748.773C5664.07 748.477 5669.3 747.886 5670.28 746.909V751.409C5670.28 755.545 5666.98 759.318 5661.32 759.318ZM5684.72 764H5691.51V742.682C5691.51 738.114 5695.03 734.818 5699.85 734.818C5701.26 734.818 5702.85 735.068 5703.4 735.227V728.727C5702.72 728.636 5701.37 728.568 5700.51 728.568C5696.42 728.568 5692.92 730.886 5691.65 734.636H5691.28V729.091H5684.72V764ZM5729.98 749.523C5730.01 755.455 5725.6 758.273 5721.78 758.273C5717.57 758.273 5714.67 755.227 5714.67 750.477V729.091H5707.87V751.295C5707.87 759.955 5712.62 764.455 5719.32 764.455C5724.57 764.455 5728.14 761.682 5729.76 757.955H5730.12V764H5736.8V729.091H5729.98V749.523Z" fill="#333333" style="fill:#333333;fill:color(display-p3 0.2000 0.2000 0.2000);fill-opacity:1;"/>
<rect x="4361" y="1279" width="488" height="396.5" rx="80" fill="#D99BFF" style="fill:#D99BFF;fill:color(display-p3 0.8510 0.6078 1.0000);fill-opacity:1;"/>
<path d="M4464.32 1460H4471.35V1443.64H4480.89C4491.69 1443.64 4497.03 1437.11 4497.03 1428.52C4497.03 1419.95 4491.73 1413.45 4480.92 1413.45H4464.32V1460ZM4471.35 1437.68V1419.48H4480.17C4487.12 1419.48 4489.96 1423.25 4489.96 1428.52C4489.96 1433.8 4487.12 1437.68 4480.26 1437.68H4471.35ZM4517.92 1460.7C4525.53 1460.7 4530.92 1456.95 4532.46 1451.27L4526.03 1450.11C4524.8 1453.41 4521.85 1455.09 4517.98 1455.09C4512.17 1455.09 4508.26 1451.32 4508.08 1444.59H4532.89V1442.18C4532.89 1429.57 4525.35 1424.64 4517.44 1424.64C4507.71 1424.64 4501.3 1432.05 4501.3 1442.77C4501.3 1453.61 4507.62 1460.7 4517.92 1460.7ZM4508.1 1439.5C4508.37 1434.55 4511.96 1430.25 4517.48 1430.25C4522.76 1430.25 4526.21 1434.16 4526.23 1439.5H4508.1ZM4545.82 1439.27C4545.82 1433.7 4549.23 1430.52 4553.96 1430.52C4558.57 1430.52 4561.37 1433.55 4561.37 1438.61V1460H4568.16V1437.8C4568.16 1429.16 4563.41 1424.64 4556.28 1424.64C4551.03 1424.64 4547.59 1427.07 4545.98 1430.77H4545.55V1425.09H4539.03V1460H4545.82V1439.27ZM4590.57 1460.7C4598.82 1460.7 4604.16 1455.75 4604.91 1448.95H4598.3C4597.44 1452.73 4594.5 1454.95 4590.62 1454.95C4584.87 1454.95 4581.16 1450.16 4581.16 1442.55C4581.16 1435.07 4584.94 1430.36 4590.62 1430.36C4594.94 1430.36 4597.57 1433.09 4598.3 1436.36H4604.91C4604.19 1429.32 4598.44 1424.64 4590.5 1424.64C4580.66 1424.64 4574.3 1432.05 4574.3 1442.7C4574.3 1453.23 4580.44 1460.7 4590.57 1460.7ZM4620.93 1460.77C4626.7 1460.77 4629.95 1457.84 4631.25 1455.23H4631.52V1460H4638.16V1436.82C4638.16 1426.66 4630.16 1424.64 4624.61 1424.64C4618.29 1424.64 4612.48 1427.18 4610.2 1433.55L4616.59 1435C4617.59 1432.52 4620.14 1430.14 4624.7 1430.14C4629.09 1430.14 4631.34 1432.43 4631.34 1436.39V1436.55C4631.34 1439.02 4628.79 1438.98 4622.52 1439.7C4615.91 1440.48 4609.14 1442.2 4609.14 1450.14C4609.14 1457 4614.29 1460.77 4620.93 1460.77ZM4622.41 1455.32C4618.57 1455.32 4615.79 1453.59 4615.79 1450.23C4615.79 1446.59 4619.02 1445.3 4622.95 1444.77C4625.16 1444.48 4630.39 1443.89 4631.36 1442.91V1447.41C4631.36 1451.55 4628.07 1455.32 4622.41 1455.32ZM4645.8 1460H4652.6V1438.68C4652.6 1434.11 4656.12 1430.82 4660.94 1430.82C4662.35 1430.82 4663.94 1431.07 4664.48 1431.23V1424.73C4663.8 1424.64 4662.46 1424.57 4661.6 1424.57C4657.51 1424.57 4654.01 1426.89 4652.73 1430.64H4652.37V1425.09H4645.8V1460ZM4668.96 1460H4675.75V1425.09H4668.96V1460ZM4672.39 1419.7C4674.73 1419.7 4676.68 1417.89 4676.68 1415.66C4676.68 1413.43 4674.73 1411.59 4672.39 1411.59C4670.02 1411.59 4668.09 1413.43 4668.09 1415.66C4668.09 1417.89 4670.02 1419.7 4672.39 1419.7ZM4693.64 1460.77C4699.42 1460.77 4702.67 1457.84 4703.96 1455.23H4704.24V1460H4710.87V1436.82C4710.87 1426.66 4702.87 1424.64 4697.33 1424.64C4691.01 1424.64 4685.19 1427.18 4682.92 1433.55L4689.3 1435C4690.3 1432.52 4692.85 1430.14 4697.42 1430.14C4701.8 1430.14 4704.05 1432.43 4704.05 1436.39V1436.55C4704.05 1439.02 4701.51 1438.98 4695.24 1439.7C4688.62 1440.48 4681.85 1442.2 4681.85 1450.14C4681.85 1457 4687.01 1460.77 4693.64 1460.77ZM4695.12 1455.32C4691.28 1455.32 4688.51 1453.59 4688.51 1450.23C4688.51 1446.59 4691.74 1445.3 4695.67 1444.77C4697.87 1444.48 4703.1 1443.89 4704.08 1442.91V1447.41C4704.08 1451.55 4700.78 1455.32 4695.12 1455.32ZM4725.31 1439.27C4725.31 1433.7 4728.72 1430.52 4733.45 1430.52C4738.06 1430.52 4740.86 1433.55 4740.86 1438.61V1460H4747.65V1437.8C4747.65 1429.16 4742.9 1424.64 4735.77 1424.64C4730.52 1424.64 4727.08 1427.07 4725.47 1430.77H4725.04V1425.09H4718.52V1460H4725.31V1439.27ZM4454.28 1508.16H4461.48C4459.91 1499.09 4452.16 1492.82 4442.12 1492.82C4430.07 1492.82 4421.28 1501.89 4421.28 1516.75C4421.28 1531.48 4429.82 1540.64 4442.44 1540.64C4453.73 1540.64 4461.8 1533.23 4461.8 1521.48V1516.18H4443.51V1521.98H4455.01C4454.85 1529.48 4449.89 1534.23 4442.44 1534.23C4434.23 1534.23 4428.26 1528.02 4428.26 1516.7C4428.26 1505.43 4434.28 1499.23 4442.16 1499.23C4448.35 1499.23 4452.53 1502.64 4454.28 1508.16ZM4478.92 1540.77C4484.69 1540.77 4487.94 1537.84 4489.24 1535.23H4489.51V1540H4496.15V1516.82C4496.15 1506.66 4488.15 1504.64 4482.6 1504.64C4476.29 1504.64 4470.47 1507.18 4468.19 1513.55L4474.58 1515C4475.58 1512.52 4478.13 1510.14 4482.69 1510.14C4487.08 1510.14 4489.33 1512.43 4489.33 1516.39V1516.55C4489.33 1519.02 4486.79 1518.98 4480.51 1519.7C4473.9 1520.48 4467.13 1522.2 4467.13 1530.14C4467.13 1537 4472.29 1540.77 4478.92 1540.77ZM4480.4 1535.32C4476.56 1535.32 4473.79 1533.59 4473.79 1530.23C4473.79 1526.59 4477.01 1525.3 4480.94 1524.77C4483.15 1524.48 4488.38 1523.89 4489.35 1522.91V1527.41C4489.35 1531.55 4486.06 1535.32 4480.4 1535.32ZM4510.59 1493.45H4503.79V1540H4510.59V1493.45ZM4528.48 1540.77C4534.25 1540.77 4537.5 1537.84 4538.8 1535.23H4539.07V1540H4545.71V1516.82C4545.71 1506.66 4537.71 1504.64 4532.16 1504.64C4525.84 1504.64 4520.03 1507.18 4517.75 1513.55L4524.14 1515C4525.14 1512.52 4527.69 1510.14 4532.25 1510.14C4536.64 1510.14 4538.89 1512.43 4538.89 1516.39V1516.55C4538.89 1519.02 4536.34 1518.98 4530.07 1519.7C4523.46 1520.48 4516.69 1522.2 4516.69 1530.14C4516.69 1537 4521.84 1540.77 4528.48 1540.77ZM4529.96 1535.32C4526.12 1535.32 4523.34 1533.59 4523.34 1530.23C4523.34 1526.59 4526.57 1525.3 4530.5 1524.77C4532.71 1524.48 4537.94 1523.89 4538.91 1522.91V1527.41C4538.91 1531.55 4535.62 1535.32 4529.96 1535.32ZM4560.15 1519.27C4560.15 1513.7 4563.56 1510.52 4568.28 1510.52C4572.9 1510.52 4575.69 1513.55 4575.69 1518.61V1540H4582.49V1517.8C4582.49 1509.16 4577.74 1504.64 4570.6 1504.64C4565.35 1504.64 4561.92 1507.07 4560.31 1510.77H4559.87V1505.09H4553.35V1540H4560.15V1519.27ZM4604.83 1553.82C4613.72 1553.82 4620.58 1549.75 4620.58 1540.77V1505.09H4613.92V1510.75H4613.42C4612.22 1508.59 4609.81 1504.64 4603.31 1504.64C4594.88 1504.64 4588.67 1511.3 4588.67 1522.41C4588.67 1533.55 4595.01 1539.48 4603.26 1539.48C4609.67 1539.48 4612.15 1535.86 4613.38 1533.64H4613.81V1540.5C4613.81 1545.98 4610.06 1548.34 4604.9 1548.34C4599.24 1548.34 4597.03 1545.5 4595.83 1543.5L4589.99 1545.91C4591.83 1550.18 4596.49 1553.82 4604.83 1553.82ZM4604.76 1533.84C4598.69 1533.84 4595.53 1529.18 4595.53 1522.32C4595.53 1515.61 4598.62 1510.41 4604.76 1510.41C4610.69 1510.41 4613.88 1515.25 4613.88 1522.32C4613.88 1529.52 4610.62 1533.84 4604.76 1533.84ZM4659.43 1540C4673.61 1540 4681.81 1531.2 4681.81 1516.66C4681.81 1502.18 4673.61 1493.45 4659.91 1493.45H4644.36V1540H4659.43ZM4651.38 1533.86V1499.59H4659.47C4669.66 1499.59 4674.91 1505.68 4674.91 1516.66C4674.91 1527.68 4669.66 1533.86 4659.04 1533.86H4651.38ZM4698.75 1540.77C4704.53 1540.77 4707.78 1537.84 4709.07 1535.23H4709.34V1540H4715.98V1516.82C4715.98 1506.66 4707.98 1504.64 4702.44 1504.64C4696.12 1504.64 4690.3 1507.18 4688.03 1513.55L4694.41 1515C4695.41 1512.52 4697.96 1510.14 4702.53 1510.14C4706.91 1510.14 4709.16 1512.43 4709.16 1516.39V1516.55C4709.16 1519.02 4706.62 1518.98 4700.34 1519.7C4693.73 1520.48 4686.96 1522.2 4686.96 1530.14C4686.96 1537 4692.12 1540.77 4698.75 1540.77ZM4700.23 1535.32C4696.39 1535.32 4693.62 1533.59 4693.62 1530.23C4693.62 1526.59 4696.84 1525.3 4700.78 1524.77C4702.98 1524.48 4708.21 1523.89 4709.19 1522.91V1527.41C4709.19 1531.55 4705.89 1535.32 4700.23 1535.32ZM4730.42 1519.27C4730.42 1513.7 4733.83 1510.52 4738.56 1510.52C4743.17 1510.52 4745.96 1513.55 4745.96 1518.61V1540H4752.76V1517.8C4752.76 1509.16 4748.01 1504.64 4740.87 1504.64C4735.62 1504.64 4732.19 1507.07 4730.58 1510.77H4730.15V1505.09H4723.62V1540H4730.42V1519.27ZM4770.62 1540.77C4776.4 1540.77 4779.65 1537.84 4780.94 1535.23H4781.22V1540H4787.85V1516.82C4787.85 1506.66 4779.85 1504.64 4774.31 1504.64C4767.99 1504.64 4762.17 1507.18 4759.9 1513.55L4766.28 1515C4767.28 1512.52 4769.83 1510.14 4774.4 1510.14C4778.78 1510.14 4781.03 1512.43 4781.03 1516.39V1516.55C4781.03 1519.02 4778.49 1518.98 4772.22 1519.7C4765.6 1520.48 4758.83 1522.2 4758.83 1530.14C4758.83 1537 4763.99 1540.77 4770.62 1540.77ZM4772.1 1535.32C4768.26 1535.32 4765.49 1533.59 4765.49 1530.23C4765.49 1526.59 4768.72 1525.3 4772.65 1524.77C4774.85 1524.48 4780.08 1523.89 4781.06 1522.91V1527.41C4781.06 1531.55 4777.76 1535.32 4772.1 1535.32Z" fill="#333333" style="fill:#333333;fill:color(display-p3 0.2000 0.2000 0.2000);fill-opacity:1;"/>
<rect x="5295" y="1296" width="488" height="396.5" rx="80" fill="#D99BFF" style="fill:#D99BFF;fill:color(display-p3 0.8510 0.6078 1.0000);fill-opacity:1;"/>
<path d="M5364.68 1477C5378.86 1477 5387.06 1468.2 5387.06 1453.66C5387.06 1439.18 5378.86 1430.45 5365.15 1430.45H5349.61V1477H5364.68ZM5356.63 1470.86V1436.59H5364.72C5374.9 1436.59 5380.15 1442.68 5380.15 1453.66C5380.15 1464.68 5374.9 1470.86 5364.29 1470.86H5356.63ZM5408.89 1477.7C5416.5 1477.7 5421.89 1473.95 5423.43 1468.27L5417 1467.11C5415.78 1470.41 5412.82 1472.09 5408.96 1472.09C5403.14 1472.09 5399.23 1468.32 5399.05 1461.59H5423.87V1459.18C5423.87 1446.57 5416.32 1441.64 5408.41 1441.64C5398.68 1441.64 5392.28 1449.05 5392.28 1459.77C5392.28 1470.61 5398.59 1477.7 5408.89 1477.7ZM5399.07 1456.5C5399.34 1451.55 5402.93 1447.25 5408.46 1447.25C5413.73 1447.25 5417.18 1451.16 5417.21 1456.5H5399.07ZM5446.29 1442.09H5439.13V1433.73H5432.34V1442.09H5427.23V1447.55H5432.34V1468.16C5432.32 1474.5 5437.16 1477.57 5442.52 1477.45C5444.68 1477.43 5446.13 1477.02 5446.93 1476.73L5445.7 1471.11C5445.25 1471.2 5444.41 1471.41 5443.32 1471.41C5441.11 1471.41 5439.13 1470.68 5439.13 1466.75V1447.55H5446.29V1442.09ZM5462.56 1477.77C5468.33 1477.77 5471.58 1474.84 5472.88 1472.23H5473.15V1477H5479.79V1453.82C5479.79 1443.66 5471.79 1441.64 5466.24 1441.64C5459.93 1441.64 5454.11 1444.18 5451.83 1450.55L5458.22 1452C5459.22 1449.52 5461.77 1447.14 5466.33 1447.14C5470.72 1447.14 5472.97 1449.43 5472.97 1453.39V1453.55C5472.97 1456.02 5470.43 1455.98 5464.15 1456.7C5457.54 1457.48 5450.77 1459.2 5450.77 1467.14C5450.77 1474 5455.93 1477.77 5462.56 1477.77ZM5464.04 1472.32C5460.2 1472.32 5457.43 1470.59 5457.43 1467.23C5457.43 1463.59 5460.65 1462.3 5464.58 1461.77C5466.79 1461.48 5472.02 1460.89 5472.99 1459.91V1464.41C5472.99 1468.55 5469.7 1472.32 5464.04 1472.32ZM5487.43 1477H5494.23V1442.09H5487.43V1477ZM5490.86 1436.7C5493.2 1436.7 5495.16 1434.89 5495.16 1432.66C5495.16 1430.43 5493.2 1428.59 5490.86 1428.59C5488.5 1428.59 5486.57 1430.43 5486.57 1432.66C5486.57 1434.89 5488.5 1436.7 5490.86 1436.7ZM5508.76 1430.45H5501.96V1477H5508.76V1430.45ZM5564.07 1445.16H5571.27C5569.7 1436.09 5561.95 1429.82 5551.91 1429.82C5539.86 1429.82 5531.07 1438.89 5531.07 1453.75C5531.07 1468.48 5539.61 1477.64 5552.22 1477.64C5563.52 1477.64 5571.59 1470.23 5571.59 1458.48V1453.18H5553.29V1458.98H5564.79C5564.63 1466.48 5559.68 1471.23 5552.22 1471.23C5544.02 1471.23 5538.04 1465.02 5538.04 1453.7C5538.04 1442.43 5544.07 1436.23 5551.95 1436.23C5558.13 1436.23 5562.32 1439.64 5564.07 1445.16ZM5588.71 1477.77C5594.48 1477.77 5597.73 1474.84 5599.03 1472.23H5599.3V1477H5605.94V1453.82C5605.94 1443.66 5597.94 1441.64 5592.39 1441.64C5586.07 1441.64 5580.25 1444.18 5577.98 1450.55L5584.37 1452C5585.37 1449.52 5587.91 1447.14 5592.48 1447.14C5596.87 1447.14 5599.12 1449.43 5599.12 1453.39V1453.55C5599.12 1456.02 5596.57 1455.98 5590.3 1456.7C5583.69 1457.48 5576.91 1459.2 5576.91 1467.14C5576.91 1474 5582.07 1477.77 5588.71 1477.77ZM5590.19 1472.32C5586.35 1472.32 5583.57 1470.59 5583.57 1467.23C5583.57 1463.59 5586.8 1462.3 5590.73 1461.77C5592.94 1461.48 5598.16 1460.89 5599.14 1459.91V1464.41C5599.14 1468.55 5595.85 1472.32 5590.19 1472.32ZM5620.37 1430.45H5613.58V1477H5620.37V1430.45ZM5638.27 1477.77C5644.04 1477.77 5647.29 1474.84 5648.59 1472.23H5648.86V1477H5655.5V1453.82C5655.5 1443.66 5647.5 1441.64 5641.95 1441.64C5635.63 1441.64 5629.81 1444.18 5627.54 1450.55L5633.93 1452C5634.93 1449.52 5637.47 1447.14 5642.04 1447.14C5646.43 1447.14 5648.68 1449.43 5648.68 1453.39V1453.55C5648.68 1456.02 5646.13 1455.98 5639.86 1456.7C5633.25 1457.48 5626.47 1459.2 5626.47 1467.14C5626.47 1474 5631.63 1477.77 5638.27 1477.77ZM5639.75 1472.32C5635.9 1472.32 5633.13 1470.59 5633.13 1467.23C5633.13 1463.59 5636.36 1462.3 5640.29 1461.77C5642.5 1461.48 5647.72 1460.89 5648.7 1459.91V1464.41C5648.7 1468.55 5645.4 1472.32 5639.75 1472.32ZM5669.93 1456.27C5669.93 1450.7 5673.34 1447.52 5678.07 1447.52C5682.68 1447.52 5685.48 1450.55 5685.48 1455.61V1477H5692.27V1454.8C5692.27 1446.16 5687.52 1441.64 5680.39 1441.64C5675.14 1441.64 5671.71 1444.07 5670.09 1447.77H5669.66V1442.09H5663.14V1477H5669.93V1456.27ZM5714.62 1490.82C5723.5 1490.82 5730.37 1486.75 5730.37 1477.77V1442.09H5723.71V1447.75H5723.21C5722 1445.59 5719.59 1441.64 5713.09 1441.64C5704.66 1441.64 5698.46 1448.3 5698.46 1459.41C5698.46 1470.55 5704.8 1476.48 5713.05 1476.48C5719.46 1476.48 5721.93 1472.86 5723.16 1470.64H5723.59V1477.5C5723.59 1482.98 5719.84 1485.34 5714.68 1485.34C5709.03 1485.34 5706.82 1482.5 5705.62 1480.5L5699.78 1482.91C5701.62 1487.18 5706.28 1490.82 5714.62 1490.82ZM5714.55 1470.84C5708.48 1470.84 5705.32 1466.18 5705.32 1459.32C5705.32 1452.61 5708.41 1447.41 5714.55 1447.41C5720.48 1447.41 5723.66 1452.25 5723.66 1459.32C5723.66 1466.52 5720.41 1470.84 5714.55 1470.84ZM5482.64 1557C5496.82 1557 5505.02 1548.2 5505.02 1533.66C5505.02 1519.18 5496.82 1510.45 5483.11 1510.45H5467.57V1557H5482.64ZM5474.59 1550.86V1516.59H5482.68C5492.86 1516.59 5498.11 1522.68 5498.11 1533.66C5498.11 1544.68 5492.86 1550.86 5482.25 1550.86H5474.59ZM5521.96 1557.77C5527.74 1557.77 5530.99 1554.84 5532.28 1552.23H5532.55V1557H5539.19V1533.82C5539.19 1523.66 5531.19 1521.64 5525.64 1521.64C5519.33 1521.64 5513.51 1524.18 5511.24 1530.55L5517.62 1532C5518.62 1529.52 5521.17 1527.14 5525.74 1527.14C5530.12 1527.14 5532.37 1529.43 5532.37 1533.39V1533.55C5532.37 1536.02 5529.83 1535.98 5523.55 1536.7C5516.94 1537.48 5510.17 1539.2 5510.17 1547.14C5510.17 1554 5515.33 1557.77 5521.96 1557.77ZM5523.44 1552.32C5519.6 1552.32 5516.83 1550.59 5516.83 1547.23C5516.83 1543.59 5520.05 1542.3 5523.99 1541.77C5526.19 1541.48 5531.42 1540.89 5532.39 1539.91V1544.41C5532.39 1548.55 5529.1 1552.32 5523.44 1552.32ZM5553.63 1536.27C5553.63 1530.7 5557.04 1527.52 5561.76 1527.52C5566.38 1527.52 5569.17 1530.55 5569.17 1535.61V1557H5575.97V1534.8C5575.97 1526.16 5571.22 1521.64 5564.08 1521.64C5558.83 1521.64 5555.4 1524.07 5553.79 1527.77H5553.36V1522.09H5546.83V1557H5553.63V1536.27ZM5593.83 1557.77C5599.61 1557.77 5602.86 1554.84 5604.15 1552.23H5604.42V1557H5611.06V1533.82C5611.06 1523.66 5603.06 1521.64 5597.52 1521.64C5591.2 1521.64 5585.38 1524.18 5583.11 1530.55L5589.49 1532C5590.49 1529.52 5593.04 1527.14 5597.61 1527.14C5601.99 1527.14 5604.24 1529.43 5604.24 1533.39V1533.55C5604.24 1536.02 5601.7 1535.98 5595.42 1536.7C5588.81 1537.48 5582.04 1539.2 5582.04 1547.14C5582.04 1554 5587.2 1557.77 5593.83 1557.77ZM5595.31 1552.32C5591.47 1552.32 5588.7 1550.59 5588.7 1547.23C5588.7 1543.59 5591.92 1542.3 5595.86 1541.77C5598.06 1541.48 5603.29 1540.89 5604.27 1539.91V1544.41C5604.27 1548.55 5600.97 1552.32 5595.31 1552.32Z" fill="#333333" style="fill:#333333;fill:color(display-p3 0.2000 0.2000 0.2000);fill-opacity:1;"/>
<rect x="6963" y="1296" width="488" height="396.5" rx="80" fill="#D99BFF" style="fill:#D99BFF;fill:color(display-p3 0.8510 0.6078 1.0000);fill-opacity:1;"/>
<path d="M7083.26 1477H7090.28V1456.7H7113.49V1477H7120.53V1430.45H7113.49V1450.68H7090.28V1430.45H7083.26V1477ZM7138.97 1477.77C7144.74 1477.77 7147.99 1474.84 7149.28 1472.23H7149.56V1477H7156.19V1453.82C7156.19 1443.66 7148.19 1441.64 7142.65 1441.64C7136.33 1441.64 7130.51 1444.18 7128.24 1450.55L7134.63 1452C7135.63 1449.52 7138.17 1447.14 7142.74 1447.14C7147.13 1447.14 7149.38 1449.43 7149.38 1453.39V1453.55C7149.38 1456.02 7146.83 1455.98 7140.56 1456.7C7133.94 1457.48 7127.17 1459.2 7127.17 1467.14C7127.17 1474 7132.33 1477.77 7138.97 1477.77ZM7140.44 1472.32C7136.6 1472.32 7133.83 1470.59 7133.83 1467.23C7133.83 1463.59 7137.06 1462.3 7140.99 1461.77C7143.19 1461.48 7148.42 1460.89 7149.4 1459.91V1464.41C7149.4 1468.55 7146.1 1472.32 7140.44 1472.32ZM7170.63 1430.45H7163.84V1477H7170.63V1430.45ZM7188.53 1477.77C7194.3 1477.77 7197.55 1474.84 7198.84 1472.23H7199.12V1477H7205.75V1453.82C7205.75 1443.66 7197.75 1441.64 7192.21 1441.64C7185.89 1441.64 7180.07 1444.18 7177.8 1450.55L7184.18 1452C7185.18 1449.52 7187.73 1447.14 7192.3 1447.14C7196.68 1447.14 7198.93 1449.43 7198.93 1453.39V1453.55C7198.93 1456.02 7196.39 1455.98 7190.12 1456.7C7183.5 1457.48 7176.73 1459.2 7176.73 1467.14C7176.73 1474 7181.89 1477.77 7188.53 1477.77ZM7190 1472.32C7186.16 1472.32 7183.39 1470.59 7183.39 1467.23C7183.39 1463.59 7186.62 1462.3 7190.55 1461.77C7192.75 1461.48 7197.98 1460.89 7198.96 1459.91V1464.41C7198.96 1468.55 7195.66 1472.32 7190 1472.32ZM7213.4 1477H7220.19V1455.48C7220.19 1450.77 7223.49 1447.5 7227.35 1447.5C7231.12 1447.5 7233.74 1450 7233.74 1453.8V1477H7240.51V1454.75C7240.51 1450.55 7243.08 1447.5 7247.51 1447.5C7251.1 1447.5 7254.05 1449.5 7254.05 1454.23V1477H7260.85V1453.59C7260.85 1445.61 7256.4 1441.64 7250.08 1441.64C7245.05 1441.64 7241.28 1444.05 7239.6 1447.77H7239.24C7237.71 1443.95 7234.51 1441.64 7229.85 1441.64C7225.24 1441.64 7221.8 1443.93 7220.35 1447.77H7219.92V1442.09H7213.4V1477ZM7278.71 1477.77C7284.48 1477.77 7287.73 1474.84 7289.03 1472.23H7289.3V1477H7295.94V1453.82C7295.94 1443.66 7287.94 1441.64 7282.39 1441.64C7276.07 1441.64 7270.25 1444.18 7267.98 1450.55L7274.37 1452C7275.37 1449.52 7277.91 1447.14 7282.48 1447.14C7286.87 1447.14 7289.12 1449.43 7289.12 1453.39V1453.55C7289.12 1456.02 7286.57 1455.98 7280.3 1456.7C7273.69 1457.48 7266.91 1459.2 7266.91 1467.14C7266.91 1474 7272.07 1477.77 7278.71 1477.77ZM7280.19 1472.32C7276.35 1472.32 7273.57 1470.59 7273.57 1467.23C7273.57 1463.59 7276.8 1462.3 7280.73 1461.77C7282.94 1461.48 7288.16 1460.89 7289.14 1459.91V1464.41C7289.14 1468.55 7285.85 1472.32 7280.19 1472.32ZM7310.37 1456.27C7310.37 1450.7 7313.78 1447.52 7318.51 1447.52C7323.12 1447.52 7325.92 1450.55 7325.92 1455.61V1477H7332.72V1454.8C7332.72 1446.16 7327.97 1441.64 7320.83 1441.64C7315.58 1441.64 7312.15 1444.07 7310.53 1447.77H7310.1V1442.09H7303.58V1477H7310.37V1456.27ZM7028.2 1557H7035.22V1540.64H7044.77C7055.56 1540.64 7060.9 1534.11 7060.9 1525.52C7060.9 1516.95 7055.61 1510.45 7044.79 1510.45H7028.2V1557ZM7035.22 1534.68V1516.48H7044.04C7051 1516.48 7053.84 1520.25 7053.84 1525.52C7053.84 1530.8 7051 1534.68 7044.13 1534.68H7035.22ZM7081.79 1557.7C7089.41 1557.7 7094.79 1553.95 7096.34 1548.27L7089.91 1547.11C7088.68 1550.41 7085.72 1552.09 7081.86 1552.09C7076.04 1552.09 7072.13 1548.32 7071.95 1541.59H7096.77V1539.18C7096.77 1526.57 7089.22 1521.64 7081.31 1521.64C7071.59 1521.64 7065.18 1529.05 7065.18 1539.77C7065.18 1550.61 7071.5 1557.7 7081.79 1557.7ZM7071.97 1536.5C7072.25 1531.55 7075.84 1527.25 7081.36 1527.25C7086.63 1527.25 7090.09 1531.16 7090.11 1536.5H7071.97ZM7102.9 1557H7109.7V1535.48C7109.7 1530.77 7112.99 1527.5 7116.86 1527.5C7120.63 1527.5 7123.24 1530 7123.24 1533.8V1557H7130.01V1534.75C7130.01 1530.55 7132.58 1527.5 7137.01 1527.5C7140.61 1527.5 7143.56 1529.5 7143.56 1534.23V1557H7150.36V1533.59C7150.36 1525.61 7145.9 1521.64 7139.58 1521.64C7134.56 1521.64 7130.79 1524.05 7129.11 1527.77H7128.74C7127.22 1523.95 7124.01 1521.64 7119.36 1521.64C7114.74 1521.64 7111.31 1523.93 7109.86 1527.77H7109.42V1522.09H7102.9V1557ZM7158.6 1557H7165.24V1551.57H7165.81C7167.03 1553.8 7169.53 1557.68 7175.9 1557.68C7184.35 1557.68 7190.49 1550.91 7190.49 1539.61C7190.49 1528.3 7184.26 1521.64 7175.83 1521.64C7169.35 1521.64 7167.01 1525.59 7165.81 1527.75H7165.4V1510.45H7158.6V1557ZM7165.26 1539.55C7165.26 1532.25 7168.44 1527.41 7174.37 1527.41C7180.53 1527.41 7183.62 1532.61 7183.62 1539.55C7183.62 1546.55 7180.44 1551.89 7174.37 1551.89C7168.53 1551.89 7165.26 1546.89 7165.26 1539.55ZM7206.87 1557.77C7212.64 1557.77 7215.89 1554.84 7217.19 1552.23H7217.46V1557H7224.1V1533.82C7224.1 1523.66 7216.1 1521.64 7210.55 1521.64C7204.23 1521.64 7198.41 1524.18 7196.14 1530.55L7202.53 1532C7203.53 1529.52 7206.07 1527.14 7210.64 1527.14C7215.03 1527.14 7217.28 1529.43 7217.28 1533.39V1533.55C7217.28 1536.02 7214.73 1535.98 7208.46 1536.7C7201.85 1537.48 7195.07 1539.2 7195.07 1547.14C7195.07 1554 7200.23 1557.77 7206.87 1557.77ZM7208.35 1552.32C7204.51 1552.32 7201.73 1550.59 7201.73 1547.23C7201.73 1543.59 7204.96 1542.3 7208.89 1541.77C7211.1 1541.48 7216.32 1540.89 7217.3 1539.91V1544.41C7217.3 1548.55 7214.01 1552.32 7208.35 1552.32ZM7234.78 1570.09C7240.4 1570.09 7243.94 1567.16 7245.97 1561.66L7260.4 1522.16L7253.06 1522.09L7244.22 1549.18H7243.85L7235.01 1522.09H7227.74L7240.51 1557.45L7239.67 1559.77C7237.94 1564.41 7235.51 1564.8 7231.78 1563.77L7230.15 1569.34C7230.97 1569.7 7232.74 1570.09 7234.78 1570.09ZM7274.49 1557.77C7280.26 1557.77 7283.51 1554.84 7284.81 1552.23H7285.08V1557H7291.72V1533.82C7291.72 1523.66 7283.72 1521.64 7278.17 1521.64C7271.85 1521.64 7266.04 1524.18 7263.76 1530.55L7270.15 1532C7271.15 1529.52 7273.69 1527.14 7278.26 1527.14C7282.65 1527.14 7284.9 1529.43 7284.9 1533.39V1533.55C7284.9 1536.02 7282.35 1535.98 7276.08 1536.7C7269.47 1537.48 7262.69 1539.2 7262.69 1547.14C7262.69 1554 7267.85 1557.77 7274.49 1557.77ZM7275.97 1552.32C7272.13 1552.32 7269.35 1550.59 7269.35 1547.23C7269.35 1543.59 7272.58 1542.3 7276.51 1541.77C7278.72 1541.48 7283.94 1540.89 7284.92 1539.91V1544.41C7284.92 1548.55 7281.63 1552.32 7275.97 1552.32ZM7299.36 1557H7306.16V1535.68C7306.16 1531.11 7309.68 1527.82 7314.5 1527.82C7315.91 1527.82 7317.5 1528.07 7318.04 1528.23V1521.73C7317.36 1521.64 7316.02 1521.57 7315.16 1521.57C7311.07 1521.57 7307.57 1523.89 7306.29 1527.64H7305.93V1522.09H7299.36V1557ZM7332.36 1557.77C7338.13 1557.77 7341.38 1554.84 7342.68 1552.23H7342.95V1557H7349.59V1533.82C7349.59 1523.66 7341.59 1521.64 7336.04 1521.64C7329.73 1521.64 7323.91 1524.18 7321.63 1530.55L7328.02 1532C7329.02 1529.52 7331.57 1527.14 7336.13 1527.14C7340.52 1527.14 7342.77 1529.43 7342.77 1533.39V1533.55C7342.77 1536.02 7340.23 1535.98 7333.95 1536.7C7327.34 1537.48 7320.57 1539.2 7320.57 1547.14C7320.57 1554 7325.73 1557.77 7332.36 1557.77ZM7333.84 1552.32C7330 1552.32 7327.23 1550.59 7327.23 1547.23C7327.23 1543.59 7330.45 1542.3 7334.38 1541.77C7336.59 1541.48 7341.82 1540.89 7342.79 1539.91V1544.41C7342.79 1548.55 7339.5 1552.32 7333.84 1552.32ZM7364.03 1536.27C7364.03 1530.7 7367.44 1527.52 7372.16 1527.52C7376.78 1527.52 7379.57 1530.55 7379.57 1535.61V1557H7386.37V1534.8C7386.37 1526.16 7381.62 1521.64 7374.48 1521.64C7369.23 1521.64 7365.8 1524.07 7364.19 1527.77H7363.75V1522.09H7357.23V1557H7364.03V1536.27Z" fill="#333333" style="fill:#333333;fill:color(display-p3 0.2000 0.2000 0.2000);fill-opacity:1;"/>
<rect x="7842" y="1296" width="482" height="396.5" rx="80" fill="#D99BFF" style="fill:#D99BFF;fill:color(display-p3 0.8510 0.6078 1.0000);fill-opacity:1;"/>
<path d="M8018.91 1442.68H8025.68C8025.48 1435.23 8018.89 1429.82 8009.43 1429.82C8000.09 1429.82 7992.93 1435.16 7992.93 1443.18C7992.93 1449.66 7997.57 1453.45 8005.05 1455.48L8010.55 1456.98C8015.53 1458.3 8019.37 1459.93 8019.37 1464.07C8019.37 1468.61 8015.03 1471.61 8009.05 1471.61C8003.64 1471.61 7999.14 1469.2 7998.73 1464.14H7991.68C7992.14 1472.57 7998.66 1477.77 8009.09 1477.77C8020.03 1477.77 8026.32 1472.02 8026.32 1464.14C8026.32 1455.75 8018.84 1452.5 8012.93 1451.05L8008.39 1449.86C8004.75 1448.93 7999.91 1447.23 7999.93 1442.77C7999.93 1438.82 8003.55 1435.89 8009.28 1435.89C8014.62 1435.89 8018.41 1438.39 8018.91 1442.68ZM8049.05 1442.09H8041.9V1433.73H8035.1V1442.09H8029.99V1447.55H8035.1V1468.16C8035.08 1474.5 8039.92 1477.57 8045.28 1477.45C8047.44 1477.43 8048.9 1477.02 8049.69 1476.73L8048.46 1471.11C8048.01 1471.2 8047.17 1471.41 8046.08 1471.41C8043.87 1471.41 8041.9 1470.68 8041.9 1466.75V1447.55H8049.05V1442.09ZM8065.32 1477.77C8071.1 1477.77 8074.35 1474.84 8075.64 1472.23H8075.91V1477H8082.55V1453.82C8082.55 1443.66 8074.55 1441.64 8069 1441.64C8062.69 1441.64 8056.87 1444.18 8054.6 1450.55L8060.98 1452C8061.98 1449.52 8064.53 1447.14 8069.1 1447.14C8073.48 1447.14 8075.73 1449.43 8075.73 1453.39V1453.55C8075.73 1456.02 8073.19 1455.98 8066.91 1456.7C8060.3 1457.48 8053.53 1459.2 8053.53 1467.14C8053.53 1474 8058.69 1477.77 8065.32 1477.77ZM8066.8 1472.32C8062.96 1472.32 8060.19 1470.59 8060.19 1467.23C8060.19 1463.59 8063.41 1462.3 8067.35 1461.77C8069.55 1461.48 8074.78 1460.89 8075.75 1459.91V1464.41C8075.75 1468.55 8072.46 1472.32 8066.8 1472.32ZM8106.49 1442.09H8099.33V1433.73H8092.53V1442.09H8087.42V1447.55H8092.53V1468.16C8092.51 1474.5 8097.35 1477.57 8102.72 1477.45C8104.88 1477.43 8106.33 1477.02 8107.12 1476.73L8105.9 1471.11C8105.44 1471.2 8104.6 1471.41 8103.51 1471.41C8101.31 1471.41 8099.33 1470.68 8099.33 1466.75V1447.55H8106.49V1442.09ZM8134.71 1462.52C8134.73 1468.45 8130.32 1471.27 8126.51 1471.27C8122.3 1471.27 8119.39 1468.23 8119.39 1463.48V1442.09H8112.6V1464.3C8112.6 1472.95 8117.35 1477.45 8124.05 1477.45C8129.3 1477.45 8132.87 1474.68 8134.48 1470.95H8134.85V1477H8141.53V1442.09H8134.71V1462.52ZM8175.41 1450.61C8174 1445.18 8169.75 1441.64 8162.21 1441.64C8154.32 1441.64 8148.73 1445.8 8148.73 1451.98C8148.73 1456.93 8151.73 1460.23 8158.27 1461.68L8164.18 1462.98C8167.55 1463.73 8169.12 1465.23 8169.12 1467.41C8169.12 1470.11 8166.23 1472.23 8161.77 1472.23C8157.71 1472.23 8155.09 1470.48 8154.27 1467.05L8147.71 1468.05C8148.84 1474.23 8153.98 1477.7 8161.82 1477.7C8170.25 1477.7 8176.09 1473.23 8176.09 1466.91C8176.09 1461.98 8172.96 1458.93 8166.55 1457.45L8161 1456.18C8157.16 1455.27 8155.5 1453.98 8155.52 1451.61C8155.5 1448.93 8158.41 1447.02 8162.27 1447.02C8166.5 1447.02 8168.46 1449.36 8169.25 1451.7L8175.41 1450.61ZM7904.2 1557H7911.22V1540.64H7920.77C7931.56 1540.64 7936.9 1534.11 7936.9 1525.52C7936.9 1516.95 7931.61 1510.45 7920.79 1510.45H7904.2V1557ZM7911.22 1534.68V1516.48H7920.04C7927 1516.48 7929.84 1520.25 7929.84 1525.52C7929.84 1530.8 7927 1534.68 7920.13 1534.68H7911.22ZM7957.79 1557.7C7965.41 1557.7 7970.79 1553.95 7972.34 1548.27L7965.91 1547.11C7964.68 1550.41 7961.72 1552.09 7957.86 1552.09C7952.04 1552.09 7948.13 1548.32 7947.95 1541.59H7972.77V1539.18C7972.77 1526.57 7965.22 1521.64 7957.31 1521.64C7947.59 1521.64 7941.18 1529.05 7941.18 1539.77C7941.18 1550.61 7947.5 1557.7 7957.79 1557.7ZM7947.97 1536.5C7948.25 1531.55 7951.84 1527.25 7957.36 1527.25C7962.63 1527.25 7966.09 1531.16 7966.11 1536.5H7947.97ZM7978.9 1557H7985.7V1535.48C7985.7 1530.77 7988.99 1527.5 7992.86 1527.5C7996.63 1527.5 7999.24 1530 7999.24 1533.8V1557H8006.01V1534.75C8006.01 1530.55 8008.58 1527.5 8013.01 1527.5C8016.61 1527.5 8019.56 1529.5 8019.56 1534.23V1557H8026.36V1533.59C8026.36 1525.61 8021.9 1521.64 8015.58 1521.64C8010.56 1521.64 8006.79 1524.05 8005.11 1527.77H8004.74C8003.22 1523.95 8000.01 1521.64 7995.36 1521.64C7990.74 1521.64 7987.31 1523.93 7985.86 1527.77H7985.42V1522.09H7978.9V1557ZM8034.6 1557H8041.24V1551.57H8041.81C8043.03 1553.8 8045.53 1557.68 8051.9 1557.68C8060.35 1557.68 8066.49 1550.91 8066.49 1539.61C8066.49 1528.3 8060.26 1521.64 8051.83 1521.64C8045.35 1521.64 8043.01 1525.59 8041.81 1527.75H8041.4V1510.45H8034.6V1557ZM8041.26 1539.55C8041.26 1532.25 8044.44 1527.41 8050.37 1527.41C8056.53 1527.41 8059.62 1532.61 8059.62 1539.55C8059.62 1546.55 8056.44 1551.89 8050.37 1551.89C8044.53 1551.89 8041.26 1546.89 8041.26 1539.55ZM8082.87 1557.77C8088.64 1557.77 8091.89 1554.84 8093.19 1552.23H8093.46V1557H8100.1V1533.82C8100.1 1523.66 8092.1 1521.64 8086.55 1521.64C8080.23 1521.64 8074.41 1524.18 8072.14 1530.55L8078.53 1532C8079.53 1529.52 8082.07 1527.14 8086.64 1527.14C8091.03 1527.14 8093.28 1529.43 8093.28 1533.39V1533.55C8093.28 1536.02 8090.73 1535.98 8084.46 1536.7C8077.85 1537.48 8071.07 1539.2 8071.07 1547.14C8071.07 1554 8076.23 1557.77 8082.87 1557.77ZM8084.35 1552.32C8080.51 1552.32 8077.73 1550.59 8077.73 1547.23C8077.73 1543.59 8080.96 1542.3 8084.89 1541.77C8087.1 1541.48 8092.32 1540.89 8093.3 1539.91V1544.41C8093.3 1548.55 8090.01 1552.32 8084.35 1552.32ZM8110.78 1570.09C8116.4 1570.09 8119.94 1567.16 8121.97 1561.66L8136.4 1522.16L8129.06 1522.09L8120.22 1549.18H8119.85L8111.01 1522.09H8103.74L8116.51 1557.45L8115.67 1559.77C8113.94 1564.41 8111.51 1564.8 8107.78 1563.77L8106.15 1569.34C8106.97 1569.7 8108.74 1570.09 8110.78 1570.09ZM8150.49 1557.77C8156.26 1557.77 8159.51 1554.84 8160.81 1552.23H8161.08V1557H8167.72V1533.82C8167.72 1523.66 8159.72 1521.64 8154.17 1521.64C8147.85 1521.64 8142.04 1524.18 8139.76 1530.55L8146.15 1532C8147.15 1529.52 8149.69 1527.14 8154.26 1527.14C8158.65 1527.14 8160.9 1529.43 8160.9 1533.39V1533.55C8160.9 1536.02 8158.35 1535.98 8152.08 1536.7C8145.47 1537.48 8138.69 1539.2 8138.69 1547.14C8138.69 1554 8143.85 1557.77 8150.49 1557.77ZM8151.97 1552.32C8148.13 1552.32 8145.35 1550.59 8145.35 1547.23C8145.35 1543.59 8148.58 1542.3 8152.51 1541.77C8154.72 1541.48 8159.94 1540.89 8160.92 1539.91V1544.41C8160.92 1548.55 8157.63 1552.32 8151.97 1552.32ZM8175.36 1557H8182.16V1535.68C8182.16 1531.11 8185.68 1527.82 8190.5 1527.82C8191.91 1527.82 8193.5 1528.07 8194.04 1528.23V1521.73C8193.36 1521.64 8192.02 1521.57 8191.16 1521.57C8187.07 1521.57 8183.57 1523.89 8182.29 1527.64H8181.93V1522.09H8175.36V1557ZM8208.36 1557.77C8214.13 1557.77 8217.38 1554.84 8218.68 1552.23H8218.95V1557H8225.59V1533.82C8225.59 1523.66 8217.59 1521.64 8212.04 1521.64C8205.73 1521.64 8199.91 1524.18 8197.63 1530.55L8204.02 1532C8205.02 1529.52 8207.57 1527.14 8212.13 1527.14C8216.52 1527.14 8218.77 1529.43 8218.77 1533.39V1533.55C8218.77 1536.02 8216.23 1535.98 8209.95 1536.7C8203.34 1537.48 8196.57 1539.2 8196.57 1547.14C8196.57 1554 8201.73 1557.77 8208.36 1557.77ZM8209.84 1552.32C8206 1552.32 8203.23 1550.59 8203.23 1547.23C8203.23 1543.59 8206.45 1542.3 8210.38 1541.77C8212.59 1541.48 8217.82 1540.89 8218.79 1539.91V1544.41C8218.79 1548.55 8215.5 1552.32 8209.84 1552.32ZM8240.03 1536.27C8240.03 1530.7 8243.44 1527.52 8248.16 1527.52C8252.78 1527.52 8255.57 1530.55 8255.57 1535.61V1557H8262.37V1534.8C8262.37 1526.16 8257.62 1521.64 8250.48 1521.64C8245.23 1521.64 8241.8 1524.07 8240.19 1527.77H8239.75V1522.09H8233.23V1557H8240.03V1536.27Z" fill="#333333" style="fill:#333333;fill:color(display-p3 0.2000 0.2000 0.2000);fill-opacity:1;"/>
<rect x="2331" y="1647" width="488" height="396.5" rx="80" fill="#D99BFF" style="fill:#D99BFF;fill:color(display-p3 0.8510 0.6078 1.0000);fill-opacity:1;"/>
<path d="M2458.2 1868H2465.22V1850.39H2474.77C2474.93 1850.39 2475.06 1850.39 2475.22 1850.39L2484.68 1868H2492.68L2482.36 1849.16C2488.06 1847.05 2490.9 1842.3 2490.9 1836.05C2490.9 1827.48 2485.58 1821.45 2474.79 1821.45H2458.2V1868ZM2465.22 1844.34V1827.48H2474.04C2480.97 1827.48 2483.83 1830.77 2483.83 1836.05C2483.83 1841.3 2480.97 1844.34 2474.13 1844.34H2465.22ZM2512.1 1868.7C2519.72 1868.7 2525.1 1864.95 2526.65 1859.27L2520.22 1858.11C2518.99 1861.41 2516.03 1863.09 2512.17 1863.09C2506.35 1863.09 2502.44 1859.32 2502.26 1852.59H2527.08V1850.18C2527.08 1837.57 2519.53 1832.64 2511.63 1832.64C2501.9 1832.64 2495.49 1840.05 2495.49 1850.77C2495.49 1861.61 2501.81 1868.7 2512.1 1868.7ZM2502.28 1847.5C2502.56 1842.55 2506.15 1838.25 2511.67 1838.25C2516.94 1838.25 2520.4 1842.16 2520.42 1847.5H2502.28ZM2547.85 1881.82C2556.73 1881.82 2563.6 1877.75 2563.6 1868.77V1833.09H2556.94V1838.75H2556.44C2555.23 1836.59 2552.83 1832.64 2546.33 1832.64C2537.89 1832.64 2531.69 1839.3 2531.69 1850.41C2531.69 1861.55 2538.03 1867.48 2546.28 1867.48C2552.69 1867.48 2555.17 1863.86 2556.39 1861.64H2556.83V1868.5C2556.83 1873.98 2553.08 1876.34 2547.92 1876.34C2542.26 1876.34 2540.05 1873.5 2538.85 1871.5L2533.01 1873.91C2534.85 1878.18 2539.51 1881.82 2547.85 1881.82ZM2547.78 1861.84C2541.71 1861.84 2538.55 1857.18 2538.55 1850.32C2538.55 1843.61 2541.64 1838.41 2547.78 1838.41C2553.71 1838.41 2556.89 1843.25 2556.89 1850.32C2556.89 1857.52 2553.64 1861.84 2547.78 1861.84ZM2571.3 1868H2578.1V1833.09H2571.3V1868ZM2574.74 1827.7C2577.08 1827.7 2579.03 1825.89 2579.03 1823.66C2579.03 1821.43 2577.08 1819.59 2574.74 1819.59C2572.37 1819.59 2570.44 1821.43 2570.44 1823.66C2570.44 1825.89 2572.37 1827.7 2574.74 1827.7ZM2611.99 1841.61C2610.58 1836.18 2606.33 1832.64 2598.79 1832.64C2590.9 1832.64 2585.31 1836.8 2585.31 1842.98C2585.31 1847.93 2588.31 1851.23 2594.86 1852.68L2600.76 1853.98C2604.13 1854.73 2605.7 1856.23 2605.7 1858.41C2605.7 1861.11 2602.81 1863.23 2598.36 1863.23C2594.29 1863.23 2591.67 1861.48 2590.86 1858.05L2584.29 1859.05C2585.42 1865.23 2590.56 1868.7 2598.4 1868.7C2606.83 1868.7 2612.67 1864.23 2612.67 1857.91C2612.67 1852.98 2609.54 1849.93 2603.13 1848.45L2597.58 1847.18C2593.74 1846.27 2592.08 1844.98 2592.11 1842.61C2592.08 1839.93 2594.99 1838.02 2598.86 1838.02C2603.08 1838.02 2605.04 1840.36 2605.83 1842.7L2611.99 1841.61ZM2635.03 1833.09H2627.87V1824.73H2621.08V1833.09H2615.96V1838.55H2621.08V1859.16C2621.06 1865.5 2625.9 1868.57 2631.26 1868.45C2633.42 1868.43 2634.87 1868.02 2635.67 1867.73L2634.44 1862.11C2633.99 1862.2 2633.15 1862.41 2632.06 1862.41C2629.85 1862.41 2627.87 1861.68 2627.87 1857.75V1838.55H2635.03V1833.09ZM2655.81 1868.7C2663.43 1868.7 2668.81 1864.95 2670.36 1859.27L2663.93 1858.11C2662.7 1861.41 2659.74 1863.09 2655.88 1863.09C2650.06 1863.09 2646.15 1859.32 2645.97 1852.59H2670.79V1850.18C2670.79 1837.57 2663.24 1832.64 2655.34 1832.64C2645.61 1832.64 2639.2 1840.05 2639.2 1850.77C2639.2 1861.61 2645.52 1868.7 2655.81 1868.7ZM2645.99 1847.5C2646.27 1842.55 2649.86 1838.25 2655.38 1838.25C2660.65 1838.25 2664.11 1842.16 2664.13 1847.5H2645.99ZM2676.92 1868H2683.72V1846.68C2683.72 1842.11 2687.24 1838.82 2692.06 1838.82C2693.47 1838.82 2695.06 1839.07 2695.6 1839.23V1832.73C2694.92 1832.64 2693.58 1832.57 2692.72 1832.57C2688.63 1832.57 2685.13 1834.89 2683.85 1838.64H2683.49V1833.09H2676.92V1868Z" fill="#333333" style="fill:#333333;fill:color(display-p3 0.2000 0.2000 0.2000);fill-opacity:1;"/>
<ellipse cx="582.5" cy="1091.12" rx="219.5" ry="212.115" fill="#D99BFF" style="fill:#D99BFF;fill:color(display-p3 0.8510 0.6078 1.0000);fill-opacity:1;"/>
<path d="M539.879 1079.68H546.651C546.447 1072.23 539.856 1066.82 530.401 1066.82C521.06 1066.82 513.901 1072.16 513.901 1080.18C513.901 1086.66 518.538 1090.45 526.015 1092.48L531.515 1093.98C536.492 1095.3 540.333 1096.93 540.333 1101.07C540.333 1105.61 535.992 1108.61 530.015 1108.61C524.606 1108.61 520.106 1106.2 519.697 1101.14H512.651C513.106 1109.57 519.629 1114.77 530.06 1114.77C540.992 1114.77 547.288 1109.02 547.288 1101.14C547.288 1092.75 539.81 1089.5 533.901 1088.05L529.356 1086.86C525.719 1085.93 520.879 1084.23 520.901 1079.77C520.901 1075.82 524.515 1072.89 530.242 1072.89C535.583 1072.89 539.379 1075.39 539.879 1079.68ZM570.022 1079.09H562.863V1070.73H556.067V1079.09H550.953V1084.55H556.067V1105.16C556.044 1111.5 560.885 1114.57 566.249 1114.45C568.408 1114.43 569.863 1114.02 570.658 1113.73L569.431 1108.11C568.976 1108.2 568.135 1108.41 567.044 1108.41C564.84 1108.41 562.863 1107.68 562.863 1103.75V1084.55H570.022V1079.09ZM586.29 1114.77C592.062 1114.77 595.312 1111.84 596.608 1109.23H596.881V1114H603.517V1090.82C603.517 1080.66 595.517 1078.64 589.972 1078.64C583.653 1078.64 577.835 1081.18 575.562 1087.55L581.949 1089C582.949 1086.52 585.494 1084.14 590.062 1084.14C594.449 1084.14 596.699 1086.43 596.699 1090.39V1090.55C596.699 1093.02 594.153 1092.98 587.881 1093.7C581.267 1094.48 574.494 1096.2 574.494 1104.14C574.494 1111 579.653 1114.77 586.29 1114.77ZM587.767 1109.32C583.926 1109.32 581.153 1107.59 581.153 1104.23C581.153 1100.59 584.381 1099.3 588.312 1098.77C590.517 1098.48 595.744 1097.89 596.722 1096.91V1101.41C596.722 1105.55 593.426 1109.32 587.767 1109.32ZM611.16 1114H617.956V1092.68C617.956 1088.11 621.478 1084.82 626.297 1084.82C627.706 1084.82 629.297 1085.07 629.842 1085.23V1078.73C629.16 1078.64 627.819 1078.57 626.956 1078.57C622.865 1078.57 619.365 1080.89 618.092 1084.64H617.728V1079.09H611.16V1114ZM652.673 1079.09H645.514V1070.73H638.718V1079.09H633.604V1084.55H638.718V1105.16C638.695 1111.5 643.536 1114.57 648.9 1114.45C651.059 1114.43 652.514 1114.02 653.309 1113.73L652.082 1108.11C651.627 1108.2 650.786 1108.41 649.695 1108.41C647.491 1108.41 645.514 1107.68 645.514 1103.75V1084.55H652.673V1079.09Z" fill="#333333" style="fill:#333333;fill:color(display-p3 0.2000 0.2000 0.2000);fill-opacity:1;"/>
<path d="M1647.02 844.508C1649.29 842.497 1652.71 842.497 1654.98 844.508L1928.98 1086.51C1931.67 1088.9 1931.67 1093.1 1928.98 1095.49L1654.98 1337.49C1652.71 1339.5 1649.29 1339.5 1647.02 1337.49L1373.02 1095.49C1370.33 1093.1 1370.33 1088.9 1373.02 1086.51L1647.02 844.508Z" fill="#FFD233" style="fill:#FFD233;fill:color(display-p3 1.0000 0.8235 0.2000);fill-opacity:1;"/>
<path d="M1587.89 999.682H1594.67C1594.46 992.227 1587.87 986.818 1578.42 986.818C1569.08 986.818 1561.92 992.159 1561.92 1000.18C1561.92 1006.66 1566.55 1010.45 1574.03 1012.48L1579.53 1013.98C1584.51 1015.3 1588.35 1016.93 1588.35 1021.07C1588.35 1025.61 1584.01 1028.61 1578.03 1028.61C1572.62 1028.61 1568.12 1026.2 1567.71 1021.14H1560.67C1561.12 1029.57 1567.64 1034.77 1578.08 1034.77C1589.01 1034.77 1595.3 1029.02 1595.3 1021.14C1595.3 1012.75 1587.83 1009.5 1581.92 1008.05L1577.37 1006.86C1573.74 1005.93 1568.89 1004.23 1568.92 999.773C1568.92 995.818 1572.53 992.886 1578.26 992.886C1583.6 992.886 1587.39 995.386 1587.89 999.682ZM1623.86 1019.52C1623.88 1025.45 1619.47 1028.27 1615.65 1028.27C1611.45 1028.27 1608.54 1025.23 1608.54 1020.48V999.091H1601.74V1021.3C1601.74 1029.95 1606.49 1034.45 1613.2 1034.45C1618.45 1034.45 1622.02 1031.68 1623.63 1027.95H1623.99V1034H1630.67V999.091H1623.86V1019.52ZM1651.47 1034.68C1657.83 1034.68 1660.33 1030.8 1661.56 1028.57H1662.12V1034H1668.76V987.455H1661.97V1004.75H1661.56C1660.33 1002.59 1658.01 998.636 1651.51 998.636C1643.08 998.636 1636.87 1005.3 1636.87 1016.61C1636.87 1027.91 1642.99 1034.68 1651.47 1034.68ZM1652.97 1028.89C1646.9 1028.89 1643.74 1023.55 1643.74 1016.55C1643.74 1009.61 1646.83 1004.41 1652.97 1004.41C1658.9 1004.41 1662.08 1009.25 1662.08 1016.55C1662.08 1023.89 1658.83 1028.89 1652.97 1028.89ZM1687.21 1034.77C1692.98 1034.77 1696.23 1031.84 1697.53 1029.23H1697.8V1034H1704.44V1010.82C1704.44 1000.66 1696.44 998.636 1690.89 998.636C1684.57 998.636 1678.76 1001.18 1676.48 1007.55L1682.87 1009C1683.87 1006.52 1686.42 1004.14 1690.98 1004.14C1695.37 1004.14 1697.62 1006.43 1697.62 1010.39V1010.55C1697.62 1013.02 1695.07 1012.98 1688.8 1013.7C1682.19 1014.48 1675.42 1016.2 1675.42 1024.14C1675.42 1031 1680.57 1034.77 1687.21 1034.77ZM1688.69 1029.32C1684.85 1029.32 1682.07 1027.59 1682.07 1024.23C1682.07 1020.59 1685.3 1019.3 1689.23 1018.77C1691.44 1018.48 1696.67 1017.89 1697.64 1016.91V1021.41C1697.64 1025.55 1694.35 1029.32 1688.69 1029.32ZM1718.88 1013.27C1718.88 1007.7 1722.4 1004.52 1727.24 1004.52C1731.92 1004.52 1734.72 1007.5 1734.72 1012.61V1034H1741.51V1011.8C1741.51 1003.09 1736.74 998.636 1729.56 998.636C1724.13 998.636 1720.85 1001 1719.22 1004.77H1718.79V987.455H1712.08V1034H1718.88V1013.27ZM1565.96 1127.09H1572.76V1108.57H1573.17C1574.39 1110.8 1576.89 1114.68 1583.26 1114.68C1591.71 1114.68 1597.85 1107.91 1597.85 1096.61C1597.85 1085.3 1591.62 1078.64 1583.19 1078.64C1576.71 1078.64 1574.37 1082.59 1573.17 1084.75H1572.6V1079.09H1565.96V1127.09ZM1572.62 1096.55C1572.62 1089.25 1575.8 1084.41 1581.74 1084.41C1587.89 1084.41 1590.99 1089.61 1590.99 1096.55C1590.99 1103.55 1587.8 1108.89 1581.74 1108.89C1575.89 1108.89 1572.62 1103.89 1572.62 1096.55ZM1626.17 1099.52C1626.19 1105.45 1621.78 1108.27 1617.96 1108.27C1613.76 1108.27 1610.85 1105.23 1610.85 1100.48V1079.09H1604.06V1101.3C1604.06 1109.95 1608.81 1114.45 1615.51 1114.45C1620.76 1114.45 1624.33 1111.68 1625.94 1107.95H1626.31V1114H1632.99V1079.09H1626.17V1099.52ZM1647.51 1093.27C1647.51 1087.7 1650.91 1084.52 1655.64 1084.52C1660.26 1084.52 1663.05 1087.55 1663.05 1092.61V1114H1669.85V1091.8C1669.85 1083.16 1665.1 1078.64 1657.96 1078.64C1652.71 1078.64 1649.28 1081.07 1647.66 1084.77H1647.23V1079.09H1640.71V1114H1647.51V1093.27ZM1680.6 1127.09C1686.21 1127.09 1689.76 1124.16 1691.78 1118.66L1706.21 1079.16L1698.87 1079.09L1690.03 1106.18H1689.67L1680.82 1079.09H1673.55L1686.32 1114.45L1685.48 1116.77C1683.76 1121.41 1681.32 1121.8 1677.6 1120.77L1675.96 1126.34C1676.78 1126.7 1678.55 1127.09 1680.6 1127.09ZM1720.3 1114.77C1726.08 1114.77 1729.33 1111.84 1730.62 1109.23H1730.89V1114H1737.53V1090.82C1737.53 1080.66 1729.53 1078.64 1723.98 1078.64C1717.67 1078.64 1711.85 1081.18 1709.58 1087.55L1715.96 1089C1716.96 1086.52 1719.51 1084.14 1724.08 1084.14C1728.46 1084.14 1730.71 1086.43 1730.71 1090.39V1090.55C1730.71 1093.02 1728.17 1092.98 1721.89 1093.7C1715.28 1094.48 1708.51 1096.2 1708.51 1104.14C1708.51 1111 1713.67 1114.77 1720.3 1114.77ZM1721.78 1109.32C1717.94 1109.32 1715.17 1107.59 1715.17 1104.23C1715.17 1100.59 1718.39 1099.3 1722.33 1098.77C1724.53 1098.48 1729.76 1097.89 1730.73 1096.91V1101.41C1730.73 1105.55 1727.44 1109.32 1721.78 1109.32ZM1577.54 1194.77C1583.32 1194.77 1586.57 1191.84 1587.86 1189.23H1588.13V1194H1594.77V1170.82C1594.77 1160.66 1586.77 1158.64 1581.23 1158.64C1574.91 1158.64 1569.09 1161.18 1566.82 1167.55L1573.2 1169C1574.2 1166.52 1576.75 1164.14 1581.32 1164.14C1585.7 1164.14 1587.95 1166.43 1587.95 1170.39V1170.55C1587.95 1173.02 1585.41 1172.98 1579.13 1173.7C1572.52 1174.48 1565.75 1176.2 1565.75 1184.14C1565.75 1191 1570.91 1194.77 1577.54 1194.77ZM1579.02 1189.32C1575.18 1189.32 1572.41 1187.59 1572.41 1184.23C1572.41 1180.59 1575.63 1179.3 1579.57 1178.77C1581.77 1178.48 1587 1177.89 1587.98 1176.91V1181.41C1587.98 1185.55 1584.68 1189.32 1579.02 1189.32ZM1602.41 1194H1609.21V1181.61L1612.6 1178.23L1624.46 1194H1632.8L1617.71 1174.07L1631.85 1159.09H1623.71L1609.8 1173.86H1609.21V1147.45H1602.41V1194ZM1658.74 1179.52C1658.77 1185.45 1654.36 1188.27 1650.54 1188.27C1646.34 1188.27 1643.43 1185.23 1643.43 1180.48V1159.09H1636.63V1181.3C1636.63 1189.95 1641.38 1194.45 1648.09 1194.45C1653.34 1194.45 1656.9 1191.68 1658.52 1187.95H1658.88V1194H1665.56V1159.09H1658.74V1179.52ZM1680.08 1173.27C1680.08 1167.7 1683.49 1164.52 1688.22 1164.52C1692.83 1164.52 1695.63 1167.55 1695.63 1172.61V1194H1702.42V1171.8C1702.42 1163.16 1697.67 1158.64 1690.54 1158.64C1685.29 1158.64 1681.85 1161.07 1680.24 1164.77H1679.81V1159.09H1673.29V1194H1680.08V1173.27ZM1717.56 1180.61H1724.06V1180.18C1724.15 1174.95 1725.65 1172.61 1729.51 1170.23C1733.58 1167.77 1736.08 1164.32 1736.08 1159.2C1736.08 1151.82 1730.49 1146.82 1722.15 1146.82C1714.49 1146.82 1708.35 1151.3 1708.06 1159.48H1714.97C1715.24 1154.66 1718.67 1152.55 1722.15 1152.55C1726.01 1152.55 1729.15 1155.11 1729.15 1159.14C1729.15 1162.52 1727.04 1164.91 1724.33 1166.59C1720.1 1169.18 1717.6 1171.75 1717.56 1180.18V1180.61ZM1720.99 1194.43C1723.47 1194.43 1725.54 1192.41 1725.54 1189.89C1725.54 1187.41 1723.47 1185.36 1720.99 1185.36C1718.49 1185.36 1716.45 1187.41 1716.45 1189.89C1716.45 1192.41 1718.49 1194.43 1720.99 1194.43Z" fill="#333333" style="fill:#333333;fill:color(display-p3 0.2000 0.2000 0.2000);fill-opacity:1;"/>
<path d="M1655 1343C1655 1340.79 1653.21 1339 1651 1339C1648.79 1339 1647 1340.79 1647 1343H1655ZM2327 1845.25L2287 1822.16V1868.34L2327 1845.25ZM1647 1343V1821.25H1655V1343H1647ZM1675 1849.25H2291V1841.25H1675V1849.25ZM1647 1821.25C1647 1836.71 1659.54 1849.25 1675 1849.25V1841.25C1663.95 1841.25 1655 1832.3 1655 1821.25H1647Z" fill="#CECCCC" style="fill:#CECCCC;fill:color(display-p3 0.8078 0.8000 0.8000);fill-opacity:1;"/>
<path d="M806 1087.12C803.791 1087.12 802 1088.91 802 1091.12C802 1093.32 803.791 1095.12 806 1095.12V1087.12ZM1367 1091L1327 1067.91V1114.09L1367 1091ZM806 1095.12H1086.44V1087.12H806V1095.12ZM1086.56 1095H1331V1087H1086.56V1095ZM1090.5 1091.06C1090.5 1093.23 1088.73 1095 1086.56 1095V1087C1084.32 1087 1082.5 1088.82 1082.5 1091.06H1090.5ZM1086.44 1095.12C1088.68 1095.12 1090.5 1093.3 1090.5 1091.06H1082.5C1082.5 1088.88 1084.26 1087.12 1086.44 1087.12V1095.12Z" fill="#CECCCC" style="fill:#CECCCC;fill:color(display-p3 0.8078 0.8000 0.8000);fill-opacity:1;"/>
<path d="M1935 1087C1932.79 1087 1931 1088.79 1931 1091C1931 1093.21 1932.79 1095 1935 1095V1087ZM2327 1091.25L2287 1068.16V1114.34L2327 1091.25ZM1935 1095H2130.88V1087H1935V1095ZM2131.12 1095.25H2291V1087.25H2131.12V1095.25ZM2127 1091.12C2127 1093.4 2128.85 1095.25 2131.12 1095.25V1087.25C2133.27 1087.25 2135 1088.98 2135 1091.12H2127ZM2130.88 1095C2128.74 1095 2127 1093.27 2127 1091.12H2135C2135 1088.85 2133.15 1087 2130.88 1087V1095Z" fill="#CECCCC" style="fill:#CECCCC;fill:color(display-p3 0.8078 0.8000 0.8000);fill-opacity:1;"/>
<path d="M2823 1087.25C2820.79 1087.25 2819 1089.04 2819 1091.25C2819 1093.46 2820.79 1095.25 2823 1095.25V1087.25ZM3371 1477.25L3331 1454.16V1500.34L3371 1477.25ZM2823 1095.25H3071V1087.25H2823V1095.25ZM3091 1115.25V1453.25H3099V1115.25H3091ZM3119 1481.25H3335V1473.25H3119V1481.25ZM3091 1453.25C3091 1468.71 3103.54 1481.25 3119 1481.25V1473.25C3107.95 1473.25 3099 1464.3 3099 1453.25H3091ZM3071 1095.25C3082.05 1095.25 3091 1104.2 3091 1115.25H3099C3099 1099.79 3086.46 1087.25 3071 1087.25V1095.25Z" fill="#CECCCC" style="fill:#CECCCC;fill:color(display-p3 0.8078 0.8000 0.8000);fill-opacity:1;"/>
<path d="M2823 1841.25C2820.79 1841.25 2819 1843.04 2819 1845.25C2819 1847.46 2820.79 1849.25 2823 1849.25V1841.25ZM3367 1477.25L3327 1454.16V1500.34L3367 1477.25ZM2823 1849.25H3071V1841.25H2823V1849.25ZM3099 1821.25V1501.25H3091V1821.25H3099ZM3119 1481.25H3331V1473.25H3119V1481.25ZM3099 1501.25C3099 1490.2 3107.95 1481.25 3119 1481.25V1473.25C3103.54 1473.25 3091 1485.79 3091 1501.25H3099ZM3071 1849.25C3086.46 1849.25 3099 1836.71 3099 1821.25H3091C3091 1832.3 3082.05 1841.25 3071 1841.25V1849.25Z" fill="#CECCCC" style="fill:#CECCCC;fill:color(display-p3 0.8078 0.8000 0.8000);fill-opacity:1;"/>
<path d="M3859 1473.25C3856.79 1473.25 3855 1475.04 3855 1477.25C3855 1479.46 3856.79 1481.25 3859 1481.25V1473.25ZM5291 741.25L5251 718.156V764.344L5291 741.25ZM3859 1481.25H4083V1473.25H3859V1481.25ZM4111 1453.25V765.25H4103V1453.25H4111ZM4131 745.25H5255V737.25H4131V745.25ZM4111 765.25C4111 754.204 4119.95 745.25 4131 745.25V737.25C4115.54 737.25 4103 749.786 4103 765.25H4111ZM4083 1481.25C4098.46 1481.25 4111 1468.71 4111 1453.25H4103C4103 1464.3 4094.05 1473.25 4083 1473.25V1481.25Z" fill="#CECCCC" style="fill:#CECCCC;fill:color(display-p3 0.8078 0.8000 0.8000);fill-opacity:1;"/>
<path d="M3723.49 1675.5C3723.49 1673.29 3721.7 1671.5 3719.49 1671.5C3717.28 1671.5 3715.49 1673.29 3715.49 1675.5H3723.49ZM5462.65 1692.5L5439.55 1732.5H5485.74L5462.65 1692.5ZM3715.49 1675.5V2103H3723.49V1675.5H3715.49ZM3743.49 2131H5438.65V2123H3743.49V2131ZM5466.65 2103V1728.5H5458.65V2103H5466.65ZM5438.65 2131C5454.11 2131 5466.65 2118.46 5466.65 2103H5458.65C5458.65 2114.05 5449.69 2123 5438.65 2123V2131ZM3715.49 2103C3715.49 2118.46 3728.03 2131 3743.49 2131V2123C3732.45 2123 3723.49 2114.05 3723.49 2103H3715.49Z" fill="#CECCCC" style="fill:#CECCCC;fill:color(display-p3 0.8078 0.8000 0.8000);fill-opacity:1;"/>
<path d="M1717.68 1415.18H1710.73V1449.36H1710.3L1686.61 1415.18H1680.11V1461.73H1687.14V1427.59H1687.57L1711.23 1461.73H1717.68V1415.18ZM1740.68 1462.43C1750.52 1462.43 1756.95 1455.23 1756.95 1444.43C1756.95 1433.57 1750.52 1426.36 1740.68 1426.36C1730.84 1426.36 1724.4 1433.57 1724.4 1444.43C1724.4 1455.23 1730.84 1462.43 1740.68 1462.43ZM1740.7 1456.73C1734.27 1456.73 1731.27 1451.11 1731.27 1444.41C1731.27 1437.73 1734.27 1432.05 1740.7 1432.05C1747.09 1432.05 1750.09 1437.73 1750.09 1444.41C1750.09 1451.11 1747.09 1456.73 1740.7 1456.73Z" fill="#333333" style="fill:#333333;fill:color(display-p3 0.2000 0.2000 0.2000);fill-opacity:1;"/>
<path d="M2044.52 1008.18L2061.41 1036.45V1054.73H2068.41V1036.45L2085.3 1008.18H2077.32L2065.16 1029.34H2064.66L2052.5 1008.18H2044.52ZM2099.33 1055.43C2106.94 1055.43 2112.33 1051.68 2113.88 1046L2107.44 1044.84C2106.22 1048.14 2103.26 1049.82 2099.4 1049.82C2093.58 1049.82 2089.67 1046.05 2089.49 1039.32H2114.31V1036.91C2114.31 1024.3 2106.76 1019.36 2098.85 1019.36C2089.13 1019.36 2082.72 1026.77 2082.72 1037.5C2082.72 1048.34 2089.04 1055.43 2099.33 1055.43ZM2089.51 1034.23C2089.79 1029.27 2093.38 1024.98 2098.9 1024.98C2104.17 1024.98 2107.63 1028.89 2107.65 1034.23H2089.51ZM2146.6 1028.34C2145.19 1022.91 2140.94 1019.36 2133.39 1019.36C2125.51 1019.36 2119.92 1023.52 2119.92 1029.7C2119.92 1034.66 2122.92 1037.95 2129.46 1039.41L2135.37 1040.7C2138.74 1041.45 2140.3 1042.95 2140.3 1045.14C2140.3 1047.84 2137.42 1049.95 2132.96 1049.95C2128.89 1049.95 2126.28 1048.2 2125.46 1044.77L2118.89 1045.77C2120.03 1051.95 2125.17 1055.43 2133.01 1055.43C2141.44 1055.43 2147.28 1050.95 2147.28 1044.64C2147.28 1039.7 2144.14 1036.66 2137.74 1035.18L2132.19 1033.91C2128.35 1033 2126.69 1031.7 2126.71 1029.34C2126.69 1026.66 2129.6 1024.75 2133.46 1024.75C2137.69 1024.75 2139.64 1027.09 2140.44 1029.43L2146.6 1028.34Z" fill="#333333" style="fill:#333333;fill:color(display-p3 0.2000 0.2000 0.2000);fill-opacity:1;"/>
<path d="M7836.52 2752.18L7853.41 2780.45V2798.73H7860.41V2780.45L7877.3 2752.18H7869.32L7857.16 2773.34H7856.66L7844.5 2752.18H7836.52ZM7891.33 2799.43C7898.94 2799.43 7904.33 2795.68 7905.88 2790L7899.44 2788.84C7898.22 2792.14 7895.26 2793.82 7891.4 2793.82C7885.58 2793.82 7881.67 2790.05 7881.49 2783.32H7906.31V2780.91C7906.31 2768.3 7898.76 2763.36 7890.85 2763.36C7881.13 2763.36 7874.72 2770.77 7874.72 2781.5C7874.72 2792.34 7881.04 2799.43 7891.33 2799.43ZM7881.51 2778.23C7881.79 2773.27 7885.38 2768.98 7890.9 2768.98C7896.17 2768.98 7899.63 2772.89 7899.65 2778.23H7881.51ZM7938.6 2772.34C7937.19 2766.91 7932.94 2763.36 7925.39 2763.36C7917.51 2763.36 7911.92 2767.52 7911.92 2773.7C7911.92 2778.66 7914.92 2781.95 7921.46 2783.41L7927.37 2784.7C7930.74 2785.45 7932.3 2786.95 7932.3 2789.14C7932.3 2791.84 7929.42 2793.95 7924.96 2793.95C7920.89 2793.95 7918.28 2792.2 7917.46 2788.77L7910.89 2789.77C7912.03 2795.95 7917.17 2799.43 7925.01 2799.43C7933.44 2799.43 7939.28 2794.95 7939.28 2788.64C7939.28 2783.7 7936.14 2780.66 7929.74 2779.18L7924.19 2777.91C7920.35 2777 7918.69 2775.7 7918.71 2773.34C7918.69 2770.66 7921.6 2768.75 7925.46 2768.75C7929.69 2768.75 7931.64 2771.09 7932.44 2773.43L7938.6 2772.34Z" fill="#333333" style="fill:#333333;fill:color(display-p3 0.2000 0.2000 0.2000);fill-opacity:1;"/>
<path d="M6700.52 1392.18L6717.41 1420.45V1438.73H6724.41V1420.45L6741.3 1392.18H6733.32L6721.16 1413.34H6720.66L6708.5 1392.18H6700.52ZM6755.33 1439.43C6762.94 1439.43 6768.33 1435.68 6769.88 1430L6763.44 1428.84C6762.22 1432.14 6759.26 1433.82 6755.4 1433.82C6749.58 1433.82 6745.67 1430.05 6745.49 1423.32H6770.31V1420.91C6770.31 1408.3 6762.76 1403.36 6754.85 1403.36C6745.13 1403.36 6738.72 1410.77 6738.72 1421.5C6738.72 1432.34 6745.04 1439.43 6755.33 1439.43ZM6745.51 1418.23C6745.79 1413.27 6749.38 1408.98 6754.9 1408.98C6760.17 1408.98 6763.63 1412.89 6763.65 1418.23H6745.51ZM6802.6 1412.34C6801.19 1406.91 6796.94 1403.36 6789.39 1403.36C6781.51 1403.36 6775.92 1407.52 6775.92 1413.7C6775.92 1418.66 6778.92 1421.95 6785.46 1423.41L6791.37 1424.7C6794.74 1425.45 6796.3 1426.95 6796.3 1429.14C6796.3 1431.84 6793.42 1433.95 6788.96 1433.95C6784.89 1433.95 6782.28 1432.2 6781.46 1428.77L6774.89 1429.77C6776.03 1435.95 6781.17 1439.43 6789.01 1439.43C6797.44 1439.43 6803.28 1434.95 6803.28 1428.64C6803.28 1423.7 6800.14 1420.66 6793.74 1419.18L6788.19 1417.91C6784.35 1417 6782.69 1415.7 6782.71 1413.34C6782.69 1410.66 6785.6 1408.75 6789.46 1408.75C6793.69 1408.75 6795.64 1411.09 6796.44 1413.43L6802.6 1412.34Z" fill="#333333" style="fill:#333333;fill:color(display-p3 0.2000 0.2000 0.2000);fill-opacity:1;"/>
<path d="M6309.68 1760.18H6302.73V1794.36H6302.3L6278.61 1760.18H6272.11V1806.73H6279.14V1772.59H6279.57L6303.23 1806.73H6309.68V1760.18ZM6332.68 1807.43C6342.52 1807.43 6348.95 1800.23 6348.95 1789.43C6348.95 1778.57 6342.52 1771.36 6332.68 1771.36C6322.84 1771.36 6316.4 1778.57 6316.4 1789.43C6316.4 1800.23 6322.84 1807.43 6332.68 1807.43ZM6332.7 1801.73C6326.27 1801.73 6323.27 1796.11 6323.27 1789.41C6323.27 1782.73 6326.27 1777.05 6332.7 1777.05C6339.09 1777.05 6342.09 1782.73 6342.09 1789.41C6342.09 1796.11 6339.09 1801.73 6332.7 1801.73Z" fill="#333333" style="fill:#333333;fill:color(display-p3 0.2000 0.2000 0.2000);fill-opacity:1;"/>
<path d="M7717.68 2336.18H7710.73V2370.36H7710.3L7686.61 2336.18H7680.11V2382.73H7687.14V2348.59H7687.57L7711.23 2382.73H7717.68V2336.18ZM7740.68 2383.43C7750.52 2383.43 7756.95 2376.23 7756.95 2365.43C7756.95 2354.57 7750.52 2347.36 7740.68 2347.36C7730.84 2347.36 7724.4 2354.57 7724.4 2365.43C7724.4 2376.23 7730.84 2383.43 7740.68 2383.43ZM7740.7 2377.73C7734.27 2377.73 7731.27 2372.11 7731.27 2365.41C7731.27 2358.73 7734.27 2353.05 7740.7 2353.05C7747.09 2353.05 7750.09 2358.73 7750.09 2365.41C7750.09 2372.11 7747.09 2377.73 7740.7 2377.73Z" fill="#333333" style="fill:#333333;fill:color(display-p3 0.2000 0.2000 0.2000);fill-opacity:1;"/>
<path d="M6375.07 1280.46C6377.33 1278.51 6380.67 1278.51 6382.93 1280.46L6624.93 1488.96C6627.69 1491.35 6627.69 1495.65 6624.93 1498.04L6382.93 1706.54C6380.67 1708.49 6377.33 1708.49 6375.07 1706.54L6133.07 1498.04C6130.31 1495.65 6130.31 1491.35 6133.07 1488.96L6375.07 1280.46Z" fill="#FFD233" style="fill:#FFD233;fill:color(display-p3 1.0000 0.8235 0.2000);fill-opacity:1;"/>
<path d="M6320.06 1430.45H6313.04V1477H6320.06V1430.45ZM6335.13 1456.27C6335.13 1450.7 6338.54 1447.52 6343.27 1447.52C6347.88 1447.52 6350.68 1450.55 6350.68 1455.61V1477H6357.47V1454.8C6357.47 1446.16 6352.72 1441.64 6345.59 1441.64C6340.34 1441.64 6336.9 1444.07 6335.29 1447.77H6334.86V1442.09H6328.34V1477H6335.13V1456.27ZM6379.81 1490.82C6388.7 1490.82 6395.56 1486.75 6395.56 1477.77V1442.09H6388.91V1447.75H6388.41C6387.2 1445.59 6384.79 1441.64 6378.29 1441.64C6369.86 1441.64 6363.66 1448.3 6363.66 1459.41C6363.66 1470.55 6370 1476.48 6378.25 1476.48C6384.66 1476.48 6387.13 1472.86 6388.36 1470.64H6388.79V1477.5C6388.79 1482.98 6385.04 1485.34 6379.88 1485.34C6374.22 1485.34 6372.02 1482.5 6370.81 1480.5L6364.97 1482.91C6366.81 1487.18 6371.47 1490.82 6379.81 1490.82ZM6379.75 1470.84C6373.68 1470.84 6370.52 1466.18 6370.52 1459.32C6370.52 1452.61 6373.61 1447.41 6379.75 1447.41C6385.68 1447.41 6388.86 1452.25 6388.86 1459.32C6388.86 1466.52 6385.61 1470.84 6379.75 1470.84ZM6403.27 1477H6410.07V1442.09H6403.27V1477ZM6406.7 1436.7C6409.04 1436.7 6411 1434.89 6411 1432.66C6411 1430.43 6409.04 1428.59 6406.7 1428.59C6404.34 1428.59 6402.41 1430.43 6402.41 1432.66C6402.41 1434.89 6404.34 1436.7 6406.7 1436.7ZM6424.6 1456.27C6424.6 1450.7 6428 1447.52 6432.73 1447.52C6437.35 1447.52 6440.14 1450.55 6440.14 1455.61V1477H6446.94V1454.8C6446.94 1446.16 6442.19 1441.64 6435.05 1441.64C6429.8 1441.64 6426.37 1444.07 6424.75 1447.77H6424.32V1442.09H6417.8V1477H6424.6V1456.27ZM6282.27 1557.68C6288.63 1557.68 6291.13 1553.8 6292.36 1551.57H6292.93V1557H6299.56V1510.45H6292.77V1527.75H6292.36C6291.13 1525.59 6288.81 1521.64 6282.31 1521.64C6273.88 1521.64 6267.68 1528.3 6267.68 1539.61C6267.68 1550.91 6273.79 1557.68 6282.27 1557.68ZM6283.77 1551.89C6277.7 1551.89 6274.54 1546.55 6274.54 1539.55C6274.54 1532.61 6277.63 1527.41 6283.77 1527.41C6289.7 1527.41 6292.88 1532.25 6292.88 1539.55C6292.88 1546.89 6289.63 1551.89 6283.77 1551.89ZM6322.56 1557.7C6332.4 1557.7 6338.83 1550.5 6338.83 1539.7C6338.83 1528.84 6332.4 1521.64 6322.56 1521.64C6312.72 1521.64 6306.28 1528.84 6306.28 1539.7C6306.28 1550.5 6312.72 1557.7 6322.56 1557.7ZM6322.58 1552C6316.15 1552 6313.15 1546.39 6313.15 1539.68C6313.15 1533 6316.15 1527.32 6322.58 1527.32C6328.97 1527.32 6331.97 1533 6331.97 1539.68C6331.97 1546.39 6328.97 1552 6322.58 1552ZM6351.8 1536.27C6351.8 1530.7 6355.21 1527.52 6359.94 1527.52C6364.55 1527.52 6367.35 1530.55 6367.35 1535.61V1557H6374.14V1534.8C6374.14 1526.16 6369.39 1521.64 6362.26 1521.64C6357.01 1521.64 6353.58 1524.07 6351.96 1527.77H6351.53V1522.09H6345.01V1557H6351.8V1536.27ZM6392.01 1557.77C6397.78 1557.77 6401.03 1554.84 6402.33 1552.23H6402.6V1557H6409.24V1533.82C6409.24 1523.66 6401.24 1521.64 6395.69 1521.64C6389.37 1521.64 6383.55 1524.18 6381.28 1530.55L6387.67 1532C6388.67 1529.52 6391.21 1527.14 6395.78 1527.14C6400.17 1527.14 6402.42 1529.43 6402.42 1533.39V1533.55C6402.42 1536.02 6399.87 1535.98 6393.6 1536.7C6386.99 1537.48 6380.21 1539.2 6380.21 1547.14C6380.21 1554 6385.37 1557.77 6392.01 1557.77ZM6393.49 1552.32C6389.64 1552.32 6386.87 1550.59 6386.87 1547.23C6386.87 1543.59 6390.1 1542.3 6394.03 1541.77C6396.24 1541.48 6401.46 1540.89 6402.44 1539.91V1544.41C6402.44 1548.55 6399.14 1552.32 6393.49 1552.32ZM6443.04 1530.61C6441.63 1525.18 6437.38 1521.64 6429.83 1521.64C6421.95 1521.64 6416.36 1525.8 6416.36 1531.98C6416.36 1536.93 6419.36 1540.23 6425.9 1541.68L6431.81 1542.98C6435.17 1543.73 6436.74 1545.23 6436.74 1547.41C6436.74 1550.11 6433.86 1552.23 6429.4 1552.23C6425.33 1552.23 6422.72 1550.48 6421.9 1547.05L6415.33 1548.05C6416.47 1554.23 6421.61 1557.7 6429.45 1557.7C6437.88 1557.7 6443.72 1553.23 6443.72 1546.91C6443.72 1541.98 6440.58 1538.93 6434.17 1537.45L6428.63 1536.18C6424.79 1535.27 6423.13 1533.98 6423.15 1531.61C6423.13 1528.93 6426.04 1527.02 6429.9 1527.02C6434.13 1527.02 6436.08 1529.36 6436.88 1531.7L6443.04 1530.61ZM6449.78 1557H6456.58V1522.09H6449.78V1557ZM6453.22 1516.7C6455.56 1516.7 6457.51 1514.89 6457.51 1512.66C6457.51 1510.43 6455.56 1508.59 6453.22 1508.59C6450.85 1508.59 6448.92 1510.43 6448.92 1512.66C6448.92 1514.89 6450.85 1516.7 6453.22 1516.7ZM6471.74 1543.61H6478.24V1543.18C6478.34 1537.95 6479.84 1535.61 6483.7 1533.23C6487.77 1530.77 6490.27 1527.32 6490.27 1522.2C6490.27 1514.82 6484.68 1509.82 6476.34 1509.82C6468.68 1509.82 6462.54 1514.3 6462.24 1522.48H6469.15C6469.43 1517.66 6472.86 1515.55 6476.34 1515.55C6480.2 1515.55 6483.34 1518.11 6483.34 1522.14C6483.34 1525.52 6481.22 1527.91 6478.52 1529.59C6474.29 1532.18 6471.79 1534.75 6471.74 1543.18V1543.61ZM6475.18 1557.43C6477.65 1557.43 6479.72 1555.41 6479.72 1552.89C6479.72 1550.41 6477.65 1548.36 6475.18 1548.36C6472.68 1548.36 6470.63 1550.41 6470.63 1552.89C6470.63 1555.41 6472.68 1557.43 6475.18 1557.43Z" fill="#333333" style="fill:#333333;fill:color(display-p3 0.2000 0.2000 0.2000);fill-opacity:1;"/>
<path d="M8078.76 2176.76C8081.1 2174.41 8084.9 2174.41 8087.24 2176.76L8329.24 2418.76C8331.59 2421.1 8331.59 2424.9 8329.24 2427.24L8087.24 2669.24C8084.9 2671.59 8081.1 2671.59 8078.76 2669.24L7836.76 2427.24C7834.41 2424.9 7834.41 2421.1 7836.76 2418.76L8078.76 2176.76Z" fill="#FFD233" style="fill:#FFD233;fill:color(display-p3 1.0000 0.8235 0.2000);fill-opacity:1;"/>
<path d="M8024.06 2319.45H8017.04V2366H8024.06V2319.45ZM8039.13 2345.27C8039.13 2339.7 8042.54 2336.52 8047.27 2336.52C8051.88 2336.52 8054.68 2339.55 8054.68 2344.61V2366H8061.47V2343.8C8061.47 2335.16 8056.72 2330.64 8049.59 2330.64C8044.34 2330.64 8040.9 2333.07 8039.29 2336.77H8038.86V2331.09H8032.34V2366H8039.13V2345.27ZM8083.81 2379.82C8092.7 2379.82 8099.56 2375.75 8099.56 2366.77V2331.09H8092.91V2336.75H8092.41C8091.2 2334.59 8088.79 2330.64 8082.29 2330.64C8073.86 2330.64 8067.66 2337.3 8067.66 2348.41C8067.66 2359.55 8074 2365.48 8082.25 2365.48C8088.66 2365.48 8091.13 2361.86 8092.36 2359.64H8092.79V2366.5C8092.79 2371.98 8089.04 2374.34 8083.88 2374.34C8078.22 2374.34 8076.02 2371.5 8074.81 2369.5L8068.97 2371.91C8070.81 2376.18 8075.47 2379.82 8083.81 2379.82ZM8083.75 2359.84C8077.68 2359.84 8074.52 2355.18 8074.52 2348.32C8074.52 2341.61 8077.61 2336.41 8083.75 2336.41C8089.68 2336.41 8092.86 2341.25 8092.86 2348.32C8092.86 2355.52 8089.61 2359.84 8083.75 2359.84ZM8107.27 2366H8114.07V2331.09H8107.27V2366ZM8110.7 2325.7C8113.04 2325.7 8115 2323.89 8115 2321.66C8115 2319.43 8113.04 2317.59 8110.7 2317.59C8108.34 2317.59 8106.41 2319.43 8106.41 2321.66C8106.41 2323.89 8108.34 2325.7 8110.7 2325.7ZM8128.6 2345.27C8128.6 2339.7 8132 2336.52 8136.73 2336.52C8141.35 2336.52 8144.14 2339.55 8144.14 2344.61V2366H8150.94V2343.8C8150.94 2335.16 8146.19 2330.64 8139.05 2330.64C8133.8 2330.64 8130.37 2333.07 8128.75 2336.77H8128.32V2331.09H8121.8V2366H8128.6V2345.27ZM8003.08 2446.68C8009.44 2446.68 8011.94 2442.8 8013.17 2440.57H8013.74V2446H8020.37V2399.45H8013.58V2416.75H8013.17C8011.94 2414.59 8009.62 2410.64 8003.12 2410.64C7994.69 2410.64 7988.49 2417.3 7988.49 2428.61C7988.49 2439.91 7994.6 2446.68 8003.08 2446.68ZM8004.58 2440.89C7998.51 2440.89 7995.35 2435.55 7995.35 2428.55C7995.35 2421.61 7998.44 2416.41 8004.58 2416.41C8010.51 2416.41 8013.69 2421.25 8013.69 2428.55C8013.69 2435.89 8010.44 2440.89 8004.58 2440.89ZM8043.37 2446.7C8053.21 2446.7 8059.64 2439.5 8059.64 2428.7C8059.64 2417.84 8053.21 2410.64 8043.37 2410.64C8033.53 2410.64 8027.1 2417.84 8027.1 2428.7C8027.1 2439.5 8033.53 2446.7 8043.37 2446.7ZM8043.39 2441C8036.96 2441 8033.96 2435.39 8033.96 2428.68C8033.96 2422 8036.96 2416.32 8043.39 2416.32C8049.78 2416.32 8052.78 2422 8052.78 2428.68C8052.78 2435.39 8049.78 2441 8043.39 2441ZM8072.62 2425.27C8072.62 2419.7 8076.02 2416.52 8080.75 2416.52C8085.37 2416.52 8088.16 2419.55 8088.16 2424.61V2446H8094.96V2423.8C8094.96 2415.16 8090.21 2410.64 8083.07 2410.64C8077.82 2410.64 8074.39 2413.07 8072.77 2416.77H8072.34V2411.09H8065.82V2446H8072.62V2425.27ZM8112.82 2446.77C8118.59 2446.77 8121.84 2443.84 8123.14 2441.23H8123.41V2446H8130.05V2422.82C8130.05 2412.66 8122.05 2410.64 8116.5 2410.64C8110.18 2410.64 8104.37 2413.18 8102.09 2419.55L8108.48 2421C8109.48 2418.52 8112.03 2416.14 8116.59 2416.14C8120.98 2416.14 8123.23 2418.43 8123.23 2422.39V2422.55C8123.23 2425.02 8120.68 2424.98 8114.41 2425.7C8107.8 2426.48 8101.03 2428.2 8101.03 2436.14C8101.03 2443 8106.18 2446.77 8112.82 2446.77ZM8114.3 2441.32C8110.46 2441.32 8107.68 2439.59 8107.68 2436.23C8107.68 2432.59 8110.91 2431.3 8114.84 2430.77C8117.05 2430.48 8122.28 2429.89 8123.25 2428.91V2433.41C8123.25 2437.55 8119.96 2441.32 8114.3 2441.32ZM8163.85 2419.61C8162.44 2414.18 8158.19 2410.64 8150.65 2410.64C8142.76 2410.64 8137.17 2414.8 8137.17 2420.98C8137.17 2425.93 8140.17 2429.23 8146.71 2430.68L8152.62 2431.98C8155.99 2432.73 8157.56 2434.23 8157.56 2436.41C8157.56 2439.11 8154.67 2441.23 8150.21 2441.23C8146.15 2441.23 8143.53 2439.48 8142.71 2436.05L8136.15 2437.05C8137.28 2443.23 8142.42 2446.7 8150.26 2446.7C8158.69 2446.7 8164.53 2442.23 8164.53 2435.91C8164.53 2430.98 8161.4 2427.93 8154.99 2426.45L8149.44 2425.18C8145.6 2424.27 8143.94 2422.98 8143.96 2420.61C8143.94 2417.93 8146.85 2416.02 8150.71 2416.02C8154.94 2416.02 8156.9 2418.36 8157.69 2420.7L8163.85 2419.61ZM8170.6 2446H8177.39V2411.09H8170.6V2446ZM8174.03 2405.7C8176.37 2405.7 8178.32 2403.89 8178.32 2401.66C8178.32 2399.43 8176.37 2397.59 8174.03 2397.59C8171.66 2397.59 8169.73 2399.43 8169.73 2401.66C8169.73 2403.89 8171.66 2405.7 8174.03 2405.7ZM8026.46 2479.45H8019.67V2526H8026.46V2479.45ZM8044.35 2526.77C8050.13 2526.77 8053.38 2523.84 8054.67 2521.23H8054.94V2526H8061.58V2502.82C8061.58 2492.66 8053.58 2490.64 8048.04 2490.64C8041.72 2490.64 8035.9 2493.18 8033.63 2499.55L8040.01 2501C8041.01 2498.52 8043.56 2496.14 8048.13 2496.14C8052.51 2496.14 8054.76 2498.43 8054.76 2502.39V2502.55C8054.76 2505.02 8052.22 2504.98 8045.94 2505.7C8039.33 2506.48 8032.56 2508.2 8032.56 2516.14C8032.56 2523 8037.72 2526.77 8044.35 2526.77ZM8045.83 2521.32C8041.99 2521.32 8039.22 2519.59 8039.22 2516.23C8039.22 2512.59 8042.44 2511.3 8046.38 2510.77C8048.58 2510.48 8053.81 2509.89 8054.79 2508.91V2513.41C8054.79 2517.55 8051.49 2521.32 8045.83 2521.32ZM8083.86 2539.82C8092.75 2539.82 8099.61 2535.75 8099.61 2526.77V2491.09H8092.95V2496.75H8092.45C8091.25 2494.59 8088.84 2490.64 8082.34 2490.64C8073.91 2490.64 8067.7 2497.3 8067.7 2508.41C8067.7 2519.55 8074.04 2525.48 8082.29 2525.48C8088.7 2525.48 8091.18 2521.86 8092.41 2519.64H8092.84V2526.5C8092.84 2531.98 8089.09 2534.34 8083.93 2534.34C8078.27 2534.34 8076.07 2531.5 8074.86 2529.5L8069.02 2531.91C8070.86 2536.18 8075.52 2539.82 8083.86 2539.82ZM8083.79 2519.84C8077.72 2519.84 8074.57 2515.18 8074.57 2508.32C8074.57 2501.61 8077.66 2496.41 8083.79 2496.41C8089.72 2496.41 8092.91 2501.25 8092.91 2508.32C8092.91 2515.52 8089.66 2519.84 8083.79 2519.84ZM8107.32 2526H8114.11V2491.09H8107.32V2526ZM8110.75 2485.7C8113.09 2485.7 8115.04 2483.89 8115.04 2481.66C8115.04 2479.43 8113.09 2477.59 8110.75 2477.59C8108.38 2477.59 8106.45 2479.43 8106.45 2481.66C8106.45 2483.89 8108.38 2485.7 8110.75 2485.7ZM8129.28 2512.61H8135.78V2512.18C8135.87 2506.95 8137.37 2504.61 8141.23 2502.23C8145.3 2499.77 8147.8 2496.32 8147.8 2491.2C8147.8 2483.82 8142.21 2478.82 8133.87 2478.82C8126.21 2478.82 8120.07 2483.3 8119.78 2491.48H8126.69C8126.96 2486.66 8130.39 2484.55 8133.87 2484.55C8137.73 2484.55 8140.87 2487.11 8140.87 2491.14C8140.87 2494.52 8138.76 2496.91 8136.05 2498.59C8131.82 2501.18 8129.32 2503.75 8129.28 2512.18V2512.61ZM8132.71 2526.43C8135.19 2526.43 8137.26 2524.41 8137.26 2521.89C8137.26 2519.41 8135.19 2517.36 8132.71 2517.36C8130.21 2517.36 8128.16 2519.41 8128.16 2521.89C8128.16 2524.41 8130.21 2526.43 8132.71 2526.43Z" fill="#333333" style="fill:#333333;fill:color(display-p3 0.2000 0.2000 0.2000);fill-opacity:1;"/>
<path d="M5783 1490.25C5780.79 1490.25 5779 1492.04 5779 1494.25C5779 1496.46 5780.79 1498.25 5783 1498.25V1490.25ZM6127 1493.5L6087 1470.41V1516.59L6127 1493.5ZM5783 1498.25H5956.62V1490.25H5783V1498.25ZM5957.38 1497.5H6091V1489.5H5957.38V1497.5ZM5961 1493.88C5961 1495.88 5959.38 1497.5 5957.38 1497.5V1489.5C5954.96 1489.5 5953 1491.46 5953 1493.88H5961ZM5956.62 1498.25C5959.04 1498.25 5961 1496.29 5961 1493.88H5953C5953 1491.87 5954.62 1490.25 5956.62 1490.25V1498.25Z" fill="#CECCCC" style="fill:#CECCCC;fill:color(display-p3 0.8078 0.8000 0.8000);fill-opacity:1;"/>
<path d="M6383 1712C6383 1709.79 6381.21 1708 6379 1708C6376.79 1708 6375 1709.79 6375 1712H6383ZM3615 1679.5L3591.91 1719.5H3638.09L3615 1679.5ZM6375 1712V2902.5H6383V1712H6375ZM6355 2922.5H3639V2930.5H6355V2922.5ZM3619 2902.5V1715.5H3611V2902.5H3619ZM3639 2922.5C3627.95 2922.5 3619 2913.55 3619 2902.5H3611C3611 2917.96 3623.54 2930.5 3639 2930.5V2922.5ZM6375 2902.5C6375 2913.55 6366.05 2922.5 6355 2922.5V2930.5C6370.46 2930.5 6383 2917.96 6383 2902.5H6375Z" fill="#CECCCC" style="fill:#CECCCC;fill:color(display-p3 0.8078 0.8000 0.8000);fill-opacity:1;"/>
<path d="M6631 1489.5C6628.79 1489.5 6627 1491.29 6627 1493.5C6627 1495.71 6628.79 1497.5 6631 1497.5V1489.5ZM6959 1494.25L6919 1471.16V1517.34L6959 1494.25ZM6631 1497.5H6794.62V1489.5H6631V1497.5ZM6795.38 1498.25H6923V1490.25H6795.38V1498.25ZM6791 1493.88C6791 1496.29 6792.96 1498.25 6795.38 1498.25V1490.25C6797.38 1490.25 6799 1491.87 6799 1493.88H6791ZM6794.62 1497.5C6792.62 1497.5 6791 1495.88 6791 1493.88H6799C6799 1491.46 6797.04 1489.5 6794.62 1489.5V1497.5Z" fill="#CECCCC" style="fill:#CECCCC;fill:color(display-p3 0.8078 0.8000 0.8000);fill-opacity:1;"/>
<path d="M3863 1473.25C3860.79 1473.25 3859 1475.04 3859 1477.25C3859 1479.46 3860.79 1481.25 3863 1481.25V1473.25ZM4357 1477.25L4317 1454.16V1500.34L4357 1477.25ZM3863 1481.25H4321V1473.25H3863V1481.25Z" fill="#CECCCC" style="fill:#CECCCC;fill:color(display-p3 0.8078 0.8000 0.8000);fill-opacity:1;"/>
<path d="M4849 1473.25C4846.79 1473.25 4845 1475.04 4845 1477.25C4845 1479.46 4846.79 1481.25 4849 1481.25V1473.25ZM5295 1477.25L5255 1454.16V1500.34L5295 1477.25ZM4849 1481.25H5259V1473.25H4849V1481.25Z" fill="#CECCCC" style="fill:#CECCCC;fill:color(display-p3 0.8078 0.8000 0.8000);fill-opacity:1;"/>
<path d="M5535 1292C5535 1294.21 5536.79 1296 5539 1296C5541.21 1296 5543 1294.21 5543 1292H5535ZM5539 943.5L5515.91 983.5H5562.09L5539 943.5ZM5543 1292V979.5H5535V1292H5543Z" fill="#CECCCC" style="fill:#CECCCC;fill:color(display-p3 0.8078 0.8000 0.8000);fill-opacity:1;"/>
<path d="M8087 1696.5C8087 1694.29 8085.21 1692.5 8083 1692.5C8080.79 1692.5 8079 1694.29 8079 1696.5H8087ZM8083 2171L8106.09 2131H8059.91L8083 2171ZM8079 1696.5V2135H8087V1696.5H8079Z" fill="#CECCCC" style="fill:#CECCCC;fill:color(display-p3 0.8078 0.8000 0.8000);fill-opacity:1;"/>
<path d="M7455 1490.25C7452.79 1490.25 7451 1492.04 7451 1494.25C7451 1496.46 7452.79 1498.25 7455 1498.25V1490.25ZM7838 1494.25L7798 1471.16V1517.34L7838 1494.25ZM7455 1498.25H7802V1490.25H7455V1498.25Z" fill="#CECCCC" style="fill:#CECCCC;fill:color(display-p3 0.8078 0.8000 0.8000);fill-opacity:1;"/>
<path d="M7831 2427C7833.21 2427 7835 2425.21 7835 2423C7835 2420.79 7833.21 2419 7831 2419V2427ZM5539 1696.5L5515.91 1736.5H5562.09L5539 1696.5ZM7831 2419H5563V2427H7831V2419ZM5543 2399V1732.5H5535V2399H5543ZM5563 2419C5551.95 2419 5543 2410.05 5543 2399H5535C5535 2414.46 5547.54 2427 5563 2427V2419Z" fill="#CECCCC" style="fill:#CECCCC;fill:color(display-p3 0.8078 0.8000 0.8000);fill-opacity:1;"/>
<path d="M8087 2675C8087 2672.79 8085.21 2671 8083 2671C8080.79 2671 8079 2672.79 8079 2675H8087ZM4605 1679.5L4581.91 1719.5H4628.09L4605 1679.5ZM8079 2675V2679H8087V2675H8079ZM8059 2699H4629V2707H8059V2699ZM4609 2679V1715.5H4601V2679H4609ZM4629 2699C4617.95 2699 4609 2690.05 4609 2679H4601C4601 2694.46 4613.54 2707 4629 2707V2699ZM8079 2679C8079 2690.05 8070.05 2699 8059 2699V2707C8074.46 2707 8087 2694.46 8087 2679H8079Z" fill="#CECCCC" style="fill:#CECCCC;fill:color(display-p3 0.8078 0.8000 0.8000);fill-opacity:1;"/>
</svg>
